<?xml version="1.0" encoding="utf-8"?>
<!-- Generator: Adobe Illustrator 25.2.0, SVG Export Plug-In . SVG Version: 6.00 Build 0)  -->
<svg version="1.1" xmlns="http://www.w3.org/2000/svg" xmlns:xlink="http://www.w3.org/1999/xlink" x="0px" y="0px"
	 viewBox="0 0 2000 2000" style="enable-background:new 0 0 2000 2000;" xml:space="preserve">
<style type="text/css">
	.st0{fill:url(#SVGID_1_);}
	.st1{fill:url(#SVGID_2_);}
	.st2{fill:url(#SVGID_3_);}
	.st3{opacity:0.4;fill:url(#SVGID_4_);}
	.st4{fill:url(#SVGID_5_);}
	.st5{fill:#ACADB2;}
	.st6{fill:url(#SVGID_6_);}
	.st7{opacity:0.4;fill:url(#SVGID_7_);}
	.st8{fill:url(#SVGID_8_);}
	.st9{fill:url(#SVGID_9_);}
	.st10{fill:url(#SVGID_10_);}
	.st11{opacity:0.4;fill:url(#SVGID_11_);}
	.st12{fill:url(#SVGID_12_);}
	.st13{fill:url(#SVGID_13_);}
	.st14{fill:url(#SVGID_14_);}
	.st15{opacity:0.4;fill:url(#SVGID_15_);}
	.st16{opacity:0.2;fill:url(#SVGID_16_);}
	.st17{fill:url(#SVGID_17_);}
	.st18{fill:url(#SVGID_18_);}
	.st19{opacity:0.4;fill:url(#SVGID_19_);}
	.st20{fill:url(#SVGID_20_);}
	.st21{fill:url(#SVGID_21_);}
	.st22{fill:url(#SVGID_22_);}
	.st23{opacity:0.4;fill:url(#SVGID_23_);}
	.st24{opacity:0.2;fill:url(#SVGID_24_);}
	.st25{fill:url(#SVGID_25_);}
	.st26{fill:url(#SVGID_26_);}
	.st27{fill:url(#SVGID_27_);}
	.st28{opacity:0.4;fill:url(#SVGID_28_);}
	.st29{fill:url(#SVGID_29_);}
	.st30{fill:url(#SVGID_30_);}
	.st31{fill:url(#SVGID_31_);}
	.st32{opacity:0.4;fill:url(#SVGID_32_);}
	.st33{opacity:0.2;fill:url(#SVGID_33_);}
	.st34{fill:url(#SVGID_34_);}
	.st35{fill:url(#SVGID_35_);}
	.st36{fill:url(#SVGID_36_);}
	.st37{fill:url(#SVGID_37_);}
	.st38{fill:url(#SVGID_38_);}
	.st39{fill:url(#SVGID_39_);}
	.st40{fill:url(#SVGID_40_);}
	.st41{fill:url(#SVGID_41_);}
	.st42{fill:url(#SVGID_42_);}
	.st43{fill:url(#SVGID_43_);}
	.st44{opacity:0.4;fill:url(#SVGID_44_);}
	.st45{fill:url(#SVGID_45_);}
	.st46{fill:url(#SVGID_46_);}
	.st47{fill:url(#SVGID_47_);}
	.st48{opacity:0.4;fill:url(#SVGID_48_);}
	.st49{opacity:0.2;fill:url(#SVGID_49_);}
	.st50{fill:url(#SVGID_50_);}
	.st51{fill:url(#SVGID_51_);}
	.st52{fill:url(#SVGID_52_);}
	.st53{fill:url(#SVGID_53_);}
	.st54{fill:url(#SVGID_54_);}
	.st55{fill:url(#SVGID_55_);}
	.st56{fill:url(#SVGID_56_);}
	.st57{fill:url(#SVGID_57_);}
	.st58{fill:url(#SVGID_58_);}
	.st59{fill:url(#SVGID_59_);}
	.st60{fill:url(#SVGID_60_);}
	.st61{fill:url(#SVGID_61_);}
	.st62{fill:url(#SVGID_62_);}
	.st63{opacity:0.4;fill:url(#SVGID_63_);}
	.st64{fill:url(#SVGID_64_);}
	.st65{fill:url(#SVGID_65_);}
	.st66{fill:url(#SVGID_66_);}
	.st67{opacity:0.4;fill:url(#SVGID_67_);}
	.st68{opacity:0.2;fill:url(#SVGID_68_);}
	.st69{fill:url(#SVGID_69_);}
	.st70{fill:url(#SVGID_70_);}
	.st71{fill:url(#SVGID_71_);}
	.st72{fill:url(#SVGID_72_);}
	.st73{opacity:0.4;fill:url(#SVGID_73_);}
	.st74{fill:url(#SVGID_74_);}
	.st75{fill:url(#SVGID_75_);}
	.st76{fill:url(#SVGID_76_);}
	.st77{opacity:0.4;fill:url(#SVGID_77_);}
	.st78{opacity:0.2;fill:url(#SVGID_78_);}
	.st79{fill:url(#SVGID_79_);}
	.st80{fill:url(#SVGID_80_);}
	.st81{fill:url(#SVGID_81_);}
	.st82{opacity:0.4;fill:url(#SVGID_82_);}
	.st83{fill:url(#SVGID_83_);}
	.st84{fill:url(#SVGID_84_);}
	.st85{fill:url(#SVGID_85_);}
	.st86{opacity:0.4;fill:url(#SVGID_86_);}
	.st87{opacity:0.2;fill:url(#SVGID_87_);}
	.st88{fill:url(#SVGID_88_);}
	.st89{fill:url(#SVGID_89_);}
	.st90{fill:url(#SVGID_90_);}
	.st91{opacity:0.4;fill:url(#SVGID_91_);}
	.st92{opacity:0.2;fill:url(#SVGID_92_);}
	.st93{fill:url(#SVGID_101_);}
	.st94{fill:url(#SVGID_102_);}
	.st95{opacity:0.4;fill:url(#SVGID_103_);}
	.st96{fill:url(#SVGID_104_);}
	.st97{fill:url(#SVGID_105_);}
	.st98{fill:url(#SVGID_106_);}
	.st99{opacity:0.4;fill:url(#SVGID_107_);}
	.st100{opacity:0.2;fill:url(#SVGID_108_);}
	.st101{fill:url(#SVGID_109_);}
	.st102{fill:url(#SVGID_110_);}
	.st103{fill:url(#SVGID_111_);}
	.st104{opacity:0.4;fill:url(#SVGID_112_);}
	.st105{opacity:0.2;fill:url(#SVGID_113_);}
	.st106{fill:url(#SVGID_122_);}
	.st107{fill:url(#SVGID_123_);}
	.st108{fill:url(#SVGID_124_);}
	.st109{opacity:0.4;fill:url(#SVGID_125_);}
	.st110{fill:url(#SVGID_126_);}
	.st111{fill:url(#SVGID_127_);}
	.st112{fill:url(#SVGID_128_);}
	.st113{opacity:0.4;fill:url(#SVGID_129_);}
	.st114{opacity:0.2;fill:url(#SVGID_130_);}
	.st115{fill:url(#SVGID_131_);}
	.st116{fill:url(#SVGID_132_);}
	.st117{fill:url(#SVGID_133_);}
	.st118{opacity:0.4;fill:url(#SVGID_134_);}
	.st119{opacity:0.2;fill:url(#SVGID_135_);}
	.st120{fill:url(#SVGID_136_);}
	.st121{fill:url(#SVGID_137_);}
	.st122{fill:url(#SVGID_138_);}
	.st123{opacity:0.4;fill:url(#SVGID_139_);}
	.st124{fill:url(#SVGID_140_);}
	.st125{fill:url(#SVGID_141_);}
	.st126{fill:url(#SVGID_142_);}
	.st127{opacity:0.4;fill:url(#SVGID_143_);}
	.st128{opacity:0.2;fill:url(#SVGID_144_);}
	.st129{fill:url(#SVGID_145_);}
	.st130{fill:url(#SVGID_146_);}
	.st131{fill:url(#SVGID_147_);}
	.st132{opacity:0.4;fill:url(#SVGID_148_);}
	.st133{opacity:0.2;fill:url(#SVGID_149_);}
	.st134{fill:url(#SVGID_150_);}
</style>
<g id="Layer_1">
</g>
<g id="Layer_2">
</g>
<g id="Layer_3">
</g>
<g id="Layer_4">
	<g>
		<g>
			
				<radialGradient id="SVGID_1_" cx="-3616.8206" cy="459.6542" r="864.2512" gradientTransform="matrix(-1 0 0 1 -2214.3271 0)" gradientUnits="userSpaceOnUse">
				<stop  offset="0" style="stop-color:#F8F8F8"/>
				<stop  offset="0.1559" style="stop-color:#EDE9F1"/>
				<stop  offset="1" style="stop-color:#9B9DA2"/>
			</radialGradient>
			<path class="st0" d="M843.1,745.11c0,251.43,203.84,455.24,455.27,455.24s455.27-203.81,455.27-455.24
				s-203.85-455.27-455.27-455.27S843.1,493.68,843.1,745.11z"/>
			<g>
				<path class="st5" d="M980.26,825.66c42.78-3.85,73.34-52.39,68.3-108.41c-5-56.01-43.77-98.3-86.58-94.45
					c-42.75,3.85-73.34,52.39-68.3,108.38C898.72,787.2,937.48,829.48,980.26,825.66z"/>
				<path class="st5" d="M943.17,866.36c-25.65,13.47-32.11,51.6-14.49,85.13c17.62,33.56,52.66,49.83,78.31,36.39
					c25.59-13.43,32.07-51.57,14.46-85.09C1003.87,869.23,968.8,852.93,943.17,866.36z"/>
				<path class="st5" d="M1044.7,825.92c-15.15,7.97-18.97,30.46-8.56,50.29c10.41,19.82,31.12,29.44,46.27,21.5
					c15.12-7.94,18.94-30.46,8.56-50.29C1080.56,827.6,1059.85,817.99,1044.7,825.92z"/>
				<path class="st5" d="M1718.87,761.58c-7.87-55.69-48.71-95.96-91.25-89.97c-42.51,5.99-70.6,56.02-62.73,111.7
					c7.84,55.69,48.7,95.96,91.22,89.94C1698.62,867.25,1726.74,817.23,1718.87,761.58z"/>
				<path class="st5" d="M1662.62,629.06c24.89-14.75,29.44-53.15,10.14-85.75c-19.27-32.6-55.09-47.09-80.02-32.37
					c-24.89,14.69-29.44,53.12-10.14,85.72C1601.86,629.29,1637.69,643.78,1662.62,629.06z"/>
				<path class="st5" d="M1569.23,623.92c-11.39-19.27-32.54-27.83-47.29-19.13c-14.69,8.69-17.39,31.38-5.99,50.65
					c11.39,19.3,32.57,27.83,47.29,19.13C1577.96,665.88,1580.66,643.19,1569.23,623.92z"/>
			</g>
			<g>
				
					<radialGradient id="SVGID_2_" cx="-2412.9185" cy="823.2757" r="129.7303" gradientTransform="matrix(-0.8392 1.1536 -1.6186 -1.3126 784.2486 4412.7769)" gradientUnits="userSpaceOnUse">
					<stop  offset="0" style="stop-color:#FFFFFF"/>
					<stop  offset="1" style="stop-color:#FFFFFF;stop-opacity:0"/>
				</radialGradient>
				<path class="st1" d="M1367.76,698.28c-115.92-94.12-161.26-237.3-101.13-319.93c60.13-82.66,202.89-73.4,318.91,20.62
					c115.92,94.05,161.13,237.34,101.07,319.89C1626.4,801.62,1483.68,792.3,1367.76,698.28z"/>
				
					<radialGradient id="SVGID_3_" cx="-5019.3794" cy="10159.9893" r="125.1913" gradientTransform="matrix(-1.1717 -1.1007 0.222 -0.7283 -7094.0513 2858.2178)" gradientUnits="userSpaceOnUse">
					<stop  offset="0" style="stop-color:#FFFFFF"/>
					<stop  offset="1" style="stop-color:#FFFFFF;stop-opacity:0"/>
				</radialGradient>
				<path style="opacity:0.4;fill:url(#SVGID_3_);" d="M895.98,845.72c15.38-50.35,93.43-29.47,174.47,46.63
					c81.01,76.1,134.23,178.59,118.91,228.97c-15.31,50.32-93.39,29.51-174.47-46.6C933.92,998.61,880.71,896.03,895.98,845.72z"/>
			</g>
		</g>
		<g>
			
				<radialGradient id="SVGID_4_" cx="1102.7808" cy="718.4199" r="1254.4392" gradientTransform="matrix(-1 0 0 -0.7305 2205.5615 1243.2169)" gradientUnits="userSpaceOnUse">
				<stop  offset="0" style="stop-color:#FFFFFF"/>
				<stop  offset="0.198" style="stop-color:#D5F3FF"/>
				<stop  offset="1" style="stop-color:#85BCF1"/>
			</radialGradient>
			<path style="fill:url(#SVGID_4_);" d="M1376.43,921.42c-17.12-250.81-225.89-448.99-481.03-448.99
				c-255.17,0-463.9,198.18-481.03,448.99c-190.06,9.41-341.28,166.48-341.28,358.84c0,198.46,160.88,359.33,359.31,359.33h926.01
				c198.43,0,359.31-160.87,359.31-359.33C1717.72,1087.9,1566.47,930.83,1376.43,921.42z"/>
			<radialGradient id="SVGID_5_" cx="1280.5343" cy="823.6144" r="1066.4124" gradientUnits="userSpaceOnUse">
				<stop  offset="0" style="stop-color:#D6D4DB"/>
				<stop  offset="0.0422" style="stop-color:#D2D0D7;stop-opacity:0.9452"/>
				<stop  offset="0.2911" style="stop-color:#BDBDC2;stop-opacity:0.6213"/>
				<stop  offset="0.5357" style="stop-color:#B0B1B6;stop-opacity:0.3032"/>
				<stop  offset="0.7688" style="stop-color:#ACADB2;stop-opacity:0"/>
			</radialGradient>
			<path class="st4" d="M1376.43,921.42c-17.12-250.81-225.89-448.99-481.03-448.99c-255.17,0-463.9,198.18-481.03,448.99
				c-190.06,9.41-341.28,166.48-341.28,358.84c0,198.46,160.88,359.33,359.31,359.33h926.01c198.43,0,359.31-160.87,359.31-359.33
				C1717.72,1087.9,1566.47,930.83,1376.43,921.42z"/>
			
				<radialGradient id="SVGID_6_" cx="-2079.665" cy="931.0903" r="151.3423" gradientTransform="matrix(-0.8392 1.1536 -1.6186 -1.3126 784.2486 4412.7769)" gradientUnits="userSpaceOnUse">
				<stop  offset="0" style="stop-color:#FFFFFF"/>
				<stop  offset="1" style="stop-color:#FFFFFF;stop-opacity:0"/>
			</radialGradient>
			<path class="st6" d="M895.43,966.12C760.18,856.38,707.33,689.3,777.46,592.92c70.16-96.46,236.7-85.61,372,24.03
				c135.24,109.74,187.98,276.89,117.92,373.24C1197.19,1086.64,1030.67,1075.8,895.43,966.12z"/>
			
				<radialGradient id="SVGID_7_" cx="-2084.207" cy="651.5239" r="118.9391" gradientTransform="matrix(-0.8392 1.1536 -1.6186 -1.3126 784.2486 4412.7769)" gradientUnits="userSpaceOnUse">
				<stop  offset="0" style="stop-color:#FFFFFF"/>
				<stop  offset="1" style="stop-color:#FFFFFF;stop-opacity:0"/>
			</radialGradient>
			<path class="st7" d="M1378.96,1290.47c-106.29-86.27-147.81-217.57-92.71-293.35c55.13-75.78,186.01-67.23,292.36,18.94
				c106.28,86.2,147.74,217.57,92.67,293.28C1616.1,1385.15,1485.24,1376.64,1378.96,1290.47z"/>
			
				<radialGradient id="SVGID_8_" cx="268.3405" cy="1392.4319" r="86.9735" gradientTransform="matrix(0.901 -0.4338 1.2628 2.6229 -1731.7531 -2143.4009)" gradientUnits="userSpaceOnUse">
				<stop  offset="0" style="stop-color:#FFFFFF"/>
				<stop  offset="1" style="stop-color:#FFFFFF;stop-opacity:0"/>
			</radialGradient>
			<path style="opacity:0.2;fill:url(#SVGID_8_);" d="M329.99,1302.5c-78.45-122.37-169.55-181.27-203.68-131.64
				c-33.98,49.59,1.95,189.08,80.35,311.48c78.48,122.37,169.66,181.3,203.69,131.65C444.35,1564.26,408.44,1424.91,329.99,1302.5z"
				/>
		</g>
	</g>
</g>
<g id="Layer_5">
</g>
<g id="Layer_6">
</g>
<g id="Layer_7">
</g>
<g id="Layer_8">
</g>
<g id="Layer_9">
</g>
<g id="Layer_10">
</g>
<g id="Layer_9_copy">
</g>
<g id="Layer_10_copy">
</g>
</svg>
