<?xml version="1.0" encoding="utf-8"?>
<!-- Generator: Adobe Illustrator 25.2.0, SVG Export Plug-In . SVG Version: 6.00 Build 0)  -->
<svg version="1.1" xmlns="http://www.w3.org/2000/svg" xmlns:xlink="http://www.w3.org/1999/xlink" x="0px" y="0px"
	 viewBox="0 0 2000 2000" style="enable-background:new 0 0 2000 2000;" xml:space="preserve">
<style type="text/css">
	.st0{fill:url(#SVGID_1_);}
	.st1{fill:url(#SVGID_2_);}
	.st2{fill:url(#SVGID_3_);}
	.st3{opacity:0.4;fill:url(#SVGID_4_);}
	.st4{fill:url(#SVGID_5_);}
	.st5{fill:#ACADB2;}
	.st6{fill:url(#SVGID_6_);}
	.st7{opacity:0.4;fill:url(#SVGID_7_);}
	.st8{fill:url(#SVGID_8_);}
	.st9{fill:url(#SVGID_9_);}
	.st10{fill:url(#SVGID_10_);}
	.st11{opacity:0.4;fill:url(#SVGID_11_);}
	.st12{fill:url(#SVGID_12_);}
	.st13{fill:url(#SVGID_13_);}
	.st14{fill:url(#SVGID_14_);}
	.st15{opacity:0.4;fill:url(#SVGID_15_);}
	.st16{opacity:0.2;fill:url(#SVGID_16_);}
	.st17{fill:url(#SVGID_17_);}
	.st18{fill:url(#SVGID_18_);}
	.st19{opacity:0.4;fill:url(#SVGID_19_);}
	.st20{fill:url(#SVGID_20_);}
	.st21{fill:url(#SVGID_21_);}
	.st22{fill:url(#SVGID_22_);}
	.st23{opacity:0.4;fill:url(#SVGID_23_);}
	.st24{opacity:0.2;fill:url(#SVGID_24_);}
	.st25{fill:url(#SVGID_25_);}
	.st26{fill:url(#SVGID_26_);}
	.st27{fill:url(#SVGID_27_);}
	.st28{opacity:0.4;fill:url(#SVGID_28_);}
	.st29{fill:url(#SVGID_29_);}
	.st30{fill:url(#SVGID_30_);}
	.st31{fill:url(#SVGID_31_);}
	.st32{opacity:0.4;fill:url(#SVGID_32_);}
	.st33{opacity:0.2;fill:url(#SVGID_33_);}
	.st34{fill:url(#SVGID_34_);}
	.st35{fill:url(#SVGID_35_);}
	.st36{fill:url(#SVGID_36_);}
	.st37{fill:url(#SVGID_37_);}
	.st38{fill:url(#SVGID_38_);}
	.st39{fill:url(#SVGID_39_);}
	.st40{fill:url(#SVGID_40_);}
	.st41{fill:url(#SVGID_41_);}
	.st42{fill:url(#SVGID_42_);}
	.st43{fill:url(#SVGID_43_);}
	.st44{opacity:0.4;fill:url(#SVGID_44_);}
	.st45{fill:url(#SVGID_45_);}
	.st46{fill:url(#SVGID_46_);}
	.st47{fill:url(#SVGID_47_);}
	.st48{opacity:0.4;fill:url(#SVGID_48_);}
	.st49{opacity:0.2;fill:url(#SVGID_49_);}
	.st50{fill:url(#SVGID_50_);}
	.st51{fill:url(#SVGID_51_);}
	.st52{fill:url(#SVGID_52_);}
	.st53{fill:url(#SVGID_53_);}
	.st54{fill:url(#SVGID_54_);}
	.st55{fill:url(#SVGID_55_);}
	.st56{fill:url(#SVGID_56_);}
	.st57{fill:url(#SVGID_57_);}
	.st58{fill:url(#SVGID_58_);}
	.st59{fill:url(#SVGID_59_);}
	.st60{fill:url(#SVGID_60_);}
	.st61{fill:url(#SVGID_61_);}
	.st62{fill:url(#SVGID_62_);}
	.st63{opacity:0.4;fill:url(#SVGID_63_);}
	.st64{fill:url(#SVGID_64_);}
	.st65{fill:url(#SVGID_65_);}
	.st66{fill:url(#SVGID_66_);}
	.st67{opacity:0.4;fill:url(#SVGID_67_);}
	.st68{opacity:0.2;fill:url(#SVGID_68_);}
	.st69{fill:url(#SVGID_69_);}
	.st70{fill:url(#SVGID_70_);}
	.st71{fill:url(#SVGID_71_);}
	.st72{fill:url(#SVGID_72_);}
	.st73{opacity:0.4;fill:url(#SVGID_73_);}
	.st74{fill:url(#SVGID_74_);}
	.st75{fill:url(#SVGID_75_);}
	.st76{fill:url(#SVGID_76_);}
	.st77{opacity:0.4;fill:url(#SVGID_77_);}
	.st78{opacity:0.2;fill:url(#SVGID_78_);}
	.st79{fill:url(#SVGID_79_);}
	.st80{fill:url(#SVGID_80_);}
	.st81{fill:url(#SVGID_81_);}
	.st82{opacity:0.4;fill:url(#SVGID_82_);}
	.st83{fill:url(#SVGID_83_);}
	.st84{fill:url(#SVGID_84_);}
	.st85{fill:url(#SVGID_85_);}
	.st86{opacity:0.4;fill:url(#SVGID_86_);}
	.st87{opacity:0.2;fill:url(#SVGID_87_);}
	.st88{fill:url(#SVGID_88_);}
	.st89{fill:url(#SVGID_89_);}
	.st90{fill:url(#SVGID_90_);}
	.st91{opacity:0.4;fill:url(#SVGID_91_);}
	.st92{opacity:0.2;fill:url(#SVGID_92_);}
	.st93{fill:url(#SVGID_101_);}
	.st94{fill:url(#SVGID_102_);}
	.st95{opacity:0.4;fill:url(#SVGID_103_);}
	.st96{fill:url(#SVGID_104_);}
	.st97{fill:url(#SVGID_105_);}
	.st98{fill:url(#SVGID_106_);}
	.st99{opacity:0.4;fill:url(#SVGID_107_);}
	.st100{opacity:0.2;fill:url(#SVGID_108_);}
	.st101{fill:url(#SVGID_109_);}
	.st102{fill:url(#SVGID_110_);}
	.st103{fill:url(#SVGID_111_);}
	.st104{opacity:0.4;fill:url(#SVGID_112_);}
	.st105{opacity:0.2;fill:url(#SVGID_113_);}
	.st106{fill:url(#SVGID_122_);}
	.st107{fill:url(#SVGID_123_);}
	.st108{fill:url(#SVGID_124_);}
	.st109{opacity:0.4;fill:url(#SVGID_125_);}
	.st110{fill:url(#SVGID_126_);}
	.st111{fill:url(#SVGID_127_);}
	.st112{fill:url(#SVGID_128_);}
	.st113{opacity:0.4;fill:url(#SVGID_129_);}
	.st114{opacity:0.2;fill:url(#SVGID_130_);}
	.st115{fill:url(#SVGID_131_);}
	.st116{fill:url(#SVGID_132_);}
	.st117{fill:url(#SVGID_133_);}
	.st118{opacity:0.4;fill:url(#SVGID_134_);}
	.st119{opacity:0.2;fill:url(#SVGID_135_);}
	.st120{fill:url(#SVGID_136_);}
	.st121{fill:url(#SVGID_137_);}
	.st122{fill:url(#SVGID_138_);}
	.st123{opacity:0.4;fill:url(#SVGID_139_);}
	.st124{fill:url(#SVGID_140_);}
	.st125{fill:url(#SVGID_141_);}
	.st126{fill:url(#SVGID_142_);}
	.st127{opacity:0.4;fill:url(#SVGID_143_);}
	.st128{opacity:0.2;fill:url(#SVGID_144_);}
	.st129{fill:url(#SVGID_145_);}
	.st130{fill:url(#SVGID_146_);}
	.st131{fill:url(#SVGID_147_);}
	.st132{opacity:0.4;fill:url(#SVGID_148_);}
	.st133{opacity:0.2;fill:url(#SVGID_149_);}
	.st134{fill:url(#SVGID_150_);}
</style>
<g id="Layer_1">
</g>
<g id="Layer_2">
</g>
<g id="Layer_3">
</g>
<g id="Layer_4">
</g>
<g id="Layer_5">
</g>
<g id="Layer_6">
</g>
<g id="Layer_7">
</g>
<g id="Layer_8">
</g>
<g id="Layer_9">
	<g>
		<linearGradient id="SVGID_1_" gradientUnits="userSpaceOnUse" x1="1632.5042" y1="362.1314" x2="568.8975" y2="1550.6792">
			<stop  offset="0" style="stop-color:#FFBA24"/>
			<stop  offset="1" style="stop-color:#FF5500"/>
		</linearGradient>
		<polygon class="st0" points="1554.24,1355.88 1421.66,1364.59 1396.67,1495.08 1269.13,1457.92 1201.02,1571.99 1093.86,1493.44 
			990.86,1577.36 917.02,1466.91 791.53,1510.52 759.94,1381.48 627.08,1379.53 641.53,1247.47 517.36,1200.21 576.1,1081.02 
			475.6,994.14 571.53,902.25 506.79,786.24 628.38,732.72 607.22,601.57 739.78,592.86 764.79,462.37 892.33,499.53 960.42,385.43 
			1067.59,463.97 1170.6,380.09 1244.43,490.51 1369.92,446.9 1401.55,575.97 1534.39,577.91 1519.94,709.95 1644.11,757.21 
			1585.37,876.4 1685.89,963.28 1589.94,1055.17 1654.68,1171.18 1533.08,1224.7 		"/>
		
			<radialGradient id="SVGID_2_" cx="-3397.5747" cy="697.6981" r="850.8904" gradientTransform="matrix(-1 0 0 1 -2214.3271 0)" gradientUnits="userSpaceOnUse">
			<stop  offset="0" style="stop-color:#FFF4C3"/>
			<stop  offset="0.1559" style="stop-color:#FFE036"/>
			<stop  offset="1" style="stop-color:#FA761C"/>
		</radialGradient>
		<path class="st1" d="M632.5,978.69c0,247.55,200.68,448.25,448.22,448.25c247.55,0,448.25-200.7,448.25-448.25
			c0-247.52-200.7-448.19-448.25-448.19C833.18,530.5,632.5,731.17,632.5,978.69z"/>
		<g>
			
				<radialGradient id="SVGID_3_" cx="-1085.1154" cy="-1748.9802" r="127.7254" gradientTransform="matrix(-0.8392 1.1536 -1.6186 -1.3126 -2485.3235 -258.6751)" gradientUnits="userSpaceOnUse">
				<stop  offset="0" style="stop-color:#FFFFFF"/>
				<stop  offset="1" style="stop-color:#FFFFFF;stop-opacity:0"/>
			</radialGradient>
			<path class="st2" d="M1149.04,932.61c-114.17-92.66-158.76-233.62-99.58-315.01c59.22-81.39,199.76-72.21,313.96,20.32
				c114.14,92.6,158.66,233.65,99.52,314.98C1403.7,1034.32,1263.17,1025.15,1149.04,932.61z"/>
			
				<radialGradient id="SVGID_4_" cx="-5332.6294" cy="5524.1504" r="123.2477" gradientTransform="matrix(-1.1717 -1.1007 0.222 -0.7283 -6645.6113 -632.9483)" gradientUnits="userSpaceOnUse">
				<stop  offset="0" style="stop-color:#FFFFFF"/>
				<stop  offset="1" style="stop-color:#FFFFFF;stop-opacity:0"/>
			</radialGradient>
			<path class="st3" d="M684.56,1077.78c15.15-49.57,91.99-29.03,171.77,45.9c79.76,74.93,132.13,175.8,117.09,225.44
				c-15.09,49.54-91.96,29.03-171.76-45.9C721.92,1228.25,669.5,1127.29,684.56,1077.78z"/>
		</g>
	</g>
	<g>
		
			<radialGradient id="SVGID_5_" cx="688.8483" cy="1147.212" r="585.7761" gradientTransform="matrix(-1 0 0 -0.7305 1377.6965 1985.2366)" gradientUnits="userSpaceOnUse">
			<stop  offset="0" style="stop-color:#FFFFFF"/>
			<stop  offset="0.198" style="stop-color:#D5F3FF"/>
			<stop  offset="1" style="stop-color:#85BCF1"/>
		</radialGradient>
		<path class="st4" d="M816.63,1242c-8-117.12-105.48-209.66-224.63-209.66c-119.14,0-216.62,92.53-224.62,209.66
			c-88.74,4.39-159.36,77.74-159.36,167.56c0,92.69,75.13,167.8,167.79,167.8h432.41c92.66,0,167.79-75.12,167.79-167.8
			C976,1319.74,905.38,1246.38,816.63,1242z"/>
		<radialGradient id="SVGID_6_" cx="821.7396" cy="1223.6522" r="665.955" gradientUnits="userSpaceOnUse">
			<stop  offset="0" style="stop-color:#FFE036"/>
			<stop  offset="5.172825e-03" style="stop-color:#FFDF36;stop-opacity:0.9933"/>
			<stop  offset="0.1623" style="stop-color:#FDB92C;stop-opacity:0.789"/>
			<stop  offset="0.319" style="stop-color:#FC9C25;stop-opacity:0.5851"/>
			<stop  offset="0.4735" style="stop-color:#FB8720;stop-opacity:0.3841"/>
			<stop  offset="0.6247" style="stop-color:#FA7A1D;stop-opacity:0.1875"/>
			<stop  offset="0.7688" style="stop-color:#FA761C;stop-opacity:0"/>
		</radialGradient>
		<path class="st6" d="M816.63,1242c-8-117.12-105.48-209.66-224.63-209.66c-119.14,0-216.62,92.53-224.62,209.66
			c-88.74,4.39-159.36,77.74-159.36,167.56c0,92.69,75.13,167.8,167.79,167.8h432.41c92.66,0,167.79-75.12,167.79-167.8
			C976,1319.74,905.38,1246.38,816.63,1242z"/>
		
			<radialGradient id="SVGID_7_" cx="-601.716" cy="-1625.9058" r="70.6713" gradientTransform="matrix(-0.8392 1.1536 -1.6186 -1.3126 -2485.3235 -258.6751)" gradientUnits="userSpaceOnUse">
			<stop  offset="0" style="stop-color:#FFFFFF"/>
			<stop  offset="1" style="stop-color:#FFFFFF;stop-opacity:0"/>
		</radialGradient>
		<path style="fill:url(#SVGID_7_);" d="M592.02,1262.88c-63.16-51.24-87.84-129.26-55.09-174.29
			c32.75-45.03,110.53-39.94,173.7,11.24c63.16,51.24,87.79,129.29,55.07,174.29C732.94,1319.15,655.17,1314.09,592.02,1262.88z"/>
		
			<radialGradient id="SVGID_8_" cx="-603.8401" cy="-1756.4539" r="55.5415" gradientTransform="matrix(-0.8392 1.1536 -1.6186 -1.3126 -2485.3235 -258.6751)" gradientUnits="userSpaceOnUse">
			<stop  offset="0" style="stop-color:#FFFFFF"/>
			<stop  offset="1" style="stop-color:#FFFFFF;stop-opacity:0"/>
		</radialGradient>
		<path style="opacity:0.4;fill:url(#SVGID_8_);" d="M817.82,1414.34c-49.63-40.28-69.01-101.58-43.3-136.98
			c25.74-35.4,86.87-31.41,136.53,8.83c49.62,40.28,68.98,101.62,43.27,136.95C928.54,1458.54,867.45,1454.59,817.82,1414.34z"/>
		
			<radialGradient id="SVGID_9_" cx="299.1932" cy="1461.9449" r="40.6144" gradientTransform="matrix(0.901 -0.4338 1.2628 2.6229 -1816.4778 -2242.8313)" gradientUnits="userSpaceOnUse">
			<stop  offset="0" style="stop-color:#FFFFFF"/>
			<stop  offset="1" style="stop-color:#FFFFFF;stop-opacity:0"/>
		</radialGradient>
		<path style="opacity:0.2;fill:url(#SVGID_9_);" d="M327.98,1419.96c-36.63-57.14-79.18-84.66-95.11-61.49
			c-15.86,23.16,0.93,88.3,37.53,145.44c36.65,57.14,79.22,84.69,95.11,61.49C381.4,1542.18,364.61,1477.1,327.98,1419.96z"/>
	</g>
	<g>
		
			<radialGradient id="SVGID_10_" cx="1674.1705" cy="696.3209" r="453.5536" gradientTransform="matrix(-1 0 0 -0.7305 3348.3411 1204.975)" gradientUnits="userSpaceOnUse">
			<stop  offset="0" style="stop-color:#FFFFFF"/>
			<stop  offset="0.198" style="stop-color:#D5F3FF"/>
			<stop  offset="1" style="stop-color:#85BCF1"/>
		</radialGradient>
		<path class="st10" d="M1773.11,769.72c-6.19-90.68-81.68-162.34-173.92-162.34c-92.26,0-167.73,71.66-173.92,162.34
			c-68.71,3.4-123.39,60.2-123.39,129.72c0,71.75,58.17,129.94,129.91,129.94h334.81c71.75,0,129.91-58.19,129.91-129.94
			C1896.5,829.92,1841.82,773.12,1773.11,769.72z"/>
		<radialGradient id="SVGID_11_" cx="1377.8607" cy="852.0608" r="606.095" gradientUnits="userSpaceOnUse">
			<stop  offset="0" style="stop-color:#FFE036"/>
			<stop  offset="5.172825e-03" style="stop-color:#FFDF36;stop-opacity:0.9933"/>
			<stop  offset="0.1623" style="stop-color:#FDB92C;stop-opacity:0.789"/>
			<stop  offset="0.319" style="stop-color:#FC9C25;stop-opacity:0.5851"/>
			<stop  offset="0.4735" style="stop-color:#FB8720;stop-opacity:0.3841"/>
			<stop  offset="0.6247" style="stop-color:#FA7A1D;stop-opacity:0.1875"/>
			<stop  offset="0.7688" style="stop-color:#FA761C;stop-opacity:0"/>
		</radialGradient>
		<path style="fill:url(#SVGID_11_);" d="M1773.11,769.72c-6.19-90.68-81.68-162.34-173.92-162.34
			c-92.26,0-167.73,71.66-173.92,162.34c-68.71,3.4-123.39,60.2-123.39,129.72c0,71.75,58.17,129.94,129.91,129.94h334.81
			c71.75,0,129.91-58.19,129.91-129.94C1896.5,829.92,1841.82,773.12,1773.11,769.72z"/>
		
			<radialGradient id="SVGID_12_" cx="-1291.156" cy="-1882.4425" r="54.7239" gradientTransform="matrix(-0.8392 1.1536 -1.6186 -1.3126 -2485.3235 -258.6751)" gradientUnits="userSpaceOnUse">
			<stop  offset="0" style="stop-color:#FFFFFF"/>
			<stop  offset="1" style="stop-color:#FFFFFF;stop-opacity:0"/>
		</radialGradient>
		<path class="st12" d="M1599.21,785.87c-48.91-39.69-68.01-100.07-42.65-134.94s85.59-30.95,134.51,8.68
			c48.88,39.69,67.95,100.13,42.64,134.97C1708.31,829.45,1648.1,825.53,1599.21,785.87z"/>
		
			<radialGradient id="SVGID_13_" cx="-1292.7924" cy="-1983.5194" r="43.0057" gradientTransform="matrix(-0.8392 1.1536 -1.6186 -1.3126 -2485.3235 -258.6751)" gradientUnits="userSpaceOnUse">
			<stop  offset="0" style="stop-color:#FFFFFF"/>
			<stop  offset="1" style="stop-color:#FFFFFF;stop-opacity:0"/>
		</radialGradient>
		<path style="opacity:0.4;fill:url(#SVGID_13_);" d="M1774.02,903.15c-38.42-31.19-53.43-78.67-33.51-106.06
			c19.94-27.4,67.25-24.31,105.69,6.83c38.42,31.2,53.42,78.7,33.51,106.06C1859.76,937.37,1812.46,934.28,1774.02,903.15z"/>
		
			<radialGradient id="SVGID_14_" cx="1372.4797" cy="940.0067" r="31.4444" gradientTransform="matrix(0.901 -0.4338 1.2628 2.6229 -1051.1565 -930.1965)" gradientUnits="userSpaceOnUse">
			<stop  offset="0" style="stop-color:#FFFFFF"/>
			<stop  offset="1" style="stop-color:#FFFFFF;stop-opacity:0"/>
		</radialGradient>
		<path style="opacity:0.2;fill:url(#SVGID_14_);" d="M1394.77,907.47c-28.35-44.23-61.31-65.51-73.65-47.56
			c-12.28,17.91,0.73,68.35,29.05,112.61c28.38,44.23,61.34,65.54,73.65,47.6C1436.13,1002.14,1423.12,951.73,1394.77,907.47z"/>
	</g>
	<g>
		<g>
			<g>
				<defs>
					<path id="SVGID_93_" d="M1465.07,1189.14l-0.19-0.01l-3.15-0.13c-29.32-1.18-52.13-25.91-50.95-55.23
						c1.17-28.92,25.3-51.5,54.1-50.98l0.46,0.01L1465.07,1189.14z"/>
				</defs>
				<clipPath id="SVGID_15_">
					<use xlink:href="#SVGID_93_"  style="overflow:visible;"/>
				</clipPath>
				<g style="clip-path:url(#SVGID_15_);">
					
						<image style="overflow:visible;" width="214.06" height="110.4" xlink:href="17194797.png"  transform="matrix(1 0 0 1 1252.2 1078.756)"/>
				</g>
			</g>
			
				<image style="overflow:visible;" width="517.67" height="359.86" xlink:href="17194795.png"  transform="matrix(1 0 0 1 1127.1536 1082.7982)"/>
			<g>
				<defs>
					<path id="SVGID_95_" d="M1127.48,1442.65h-0.33c-29.36,0-53.17-23.8-53.17-53.17s23.8-53.17,53.17-53.17h0.33V1442.65z"/>
				</defs>
				<clipPath id="SVGID_16_">
					<use xlink:href="#SVGID_95_"  style="overflow:visible;"/>
				</clipPath>
				<g style="clip-path:url(#SVGID_16_);">
					
						<image style="overflow:visible;" width="213.65" height="106.34" xlink:href="1719479B.png"  transform="matrix(1 0 0 1 914.4798 1336.3173)"/>
				</g>
			</g>
		</g>
	</g>
	<g>
		<g>
			<g>
				<defs>
					<path id="SVGID_97_" d="M1586.59,1811.81l-0.49,0.01c-29.33,0.54-53.55-22.8-54.09-52.14c-0.53-28.81,21.98-52.68,50.57-54.04
						l3.52-0.16l0.16-0.01L1586.59,1811.81z"/>
				</defs>
				<clipPath id="SVGID_17_">
					<use xlink:href="#SVGID_97_"  style="overflow:visible;"/>
				</clipPath>
				<g style="clip-path:url(#SVGID_17_);">
					
						<image style="overflow:visible;" width="214.15" height="110.26" xlink:href="1719479D.png"  transform="matrix(1 0 0 1 1373.4216 1705.4635)"/>
				</g>
			</g>
			
				<image style="overflow:visible;" width="431.99" height="313.1" xlink:href="1719479F.png"  transform="matrix(1 0 0 1 1310.6533 1498.7197)"/>
			<g>
				<defs>
					<path id="SVGID_99_" d="M1310.98,1605.06h-0.33c-29.36,0-53.17-23.8-53.17-53.17c0-29.36,23.8-53.17,53.17-53.17h0.33V1605.06z
						"/>
				</defs>
				<clipPath id="SVGID_18_">
					<use xlink:href="#SVGID_99_"  style="overflow:visible;"/>
				</clipPath>
				<g style="clip-path:url(#SVGID_18_);">
					
						<image style="overflow:visible;" width="213.65" height="106.34" xlink:href="1719479C.png"  transform="matrix(1 0 0 1 1097.9795 1498.7197)"/>
				</g>
			</g>
		</g>
	</g>
</g>
<g id="Layer_10">
</g>
<g id="Layer_9_copy">
</g>
<g id="Layer_10_copy">
</g>
</svg>
