<?xml version="1.0" encoding="utf-8"?>
<!-- Generator: Adobe Illustrator 25.2.0, SVG Export Plug-In . SVG Version: 6.00 Build 0)  -->
<svg version="1.1" xmlns="http://www.w3.org/2000/svg" xmlns:xlink="http://www.w3.org/1999/xlink" x="0px" y="0px"
	 viewBox="0 0 2000 2000" style="enable-background:new 0 0 2000 2000;" xml:space="preserve">
<style type="text/css">
	.st0{fill:url(#SVGID_1_);}
	.st1{fill:url(#SVGID_2_);}
	.st2{fill:url(#SVGID_3_);}
	.st3{opacity:0.4;fill:url(#SVGID_4_);}
	.st4{fill:url(#SVGID_5_);}
	.st5{fill:#ACADB2;}
	.st6{fill:url(#SVGID_6_);}
	.st7{opacity:0.4;fill:url(#SVGID_7_);}
	.st8{fill:url(#SVGID_8_);}
	.st9{fill:url(#SVGID_9_);}
	.st10{fill:url(#SVGID_10_);}
	.st11{opacity:0.4;fill:url(#SVGID_11_);}
	.st12{fill:url(#SVGID_12_);}
	.st13{fill:url(#SVGID_13_);}
	.st14{fill:url(#SVGID_14_);}
	.st15{opacity:0.4;fill:url(#SVGID_15_);}
	.st16{opacity:0.2;fill:url(#SVGID_16_);}
	.st17{fill:url(#SVGID_17_);}
	.st18{fill:url(#SVGID_18_);}
	.st19{opacity:0.4;fill:url(#SVGID_19_);}
	.st20{fill:url(#SVGID_20_);}
	.st21{fill:url(#SVGID_21_);}
	.st22{fill:url(#SVGID_22_);}
	.st23{opacity:0.4;fill:url(#SVGID_23_);}
	.st24{opacity:0.2;fill:url(#SVGID_24_);}
	.st25{fill:url(#SVGID_25_);}
	.st26{fill:url(#SVGID_26_);}
	.st27{fill:url(#SVGID_27_);}
	.st28{opacity:0.4;fill:url(#SVGID_28_);}
	.st29{fill:url(#SVGID_29_);}
	.st30{fill:url(#SVGID_30_);}
	.st31{fill:url(#SVGID_31_);}
	.st32{opacity:0.4;fill:url(#SVGID_32_);}
	.st33{opacity:0.2;fill:url(#SVGID_33_);}
	.st34{fill:url(#SVGID_34_);}
	.st35{fill:url(#SVGID_35_);}
	.st36{fill:url(#SVGID_36_);}
	.st37{fill:url(#SVGID_37_);}
	.st38{fill:url(#SVGID_38_);}
	.st39{fill:url(#SVGID_39_);}
	.st40{fill:url(#SVGID_40_);}
	.st41{fill:url(#SVGID_41_);}
	.st42{fill:url(#SVGID_42_);}
	.st43{fill:url(#SVGID_43_);}
	.st44{opacity:0.4;fill:url(#SVGID_44_);}
	.st45{fill:url(#SVGID_45_);}
	.st46{fill:url(#SVGID_46_);}
	.st47{fill:url(#SVGID_47_);}
	.st48{opacity:0.4;fill:url(#SVGID_48_);}
	.st49{opacity:0.2;fill:url(#SVGID_49_);}
	.st50{fill:url(#SVGID_50_);}
	.st51{fill:url(#SVGID_51_);}
	.st52{fill:url(#SVGID_52_);}
	.st53{fill:url(#SVGID_53_);}
	.st54{fill:url(#SVGID_54_);}
	.st55{fill:url(#SVGID_55_);}
	.st56{fill:url(#SVGID_56_);}
	.st57{fill:url(#SVGID_57_);}
	.st58{fill:url(#SVGID_58_);}
	.st59{fill:url(#SVGID_59_);}
	.st60{fill:url(#SVGID_60_);}
	.st61{fill:url(#SVGID_61_);}
	.st62{fill:url(#SVGID_62_);}
	.st63{opacity:0.4;fill:url(#SVGID_63_);}
	.st64{fill:url(#SVGID_64_);}
	.st65{fill:url(#SVGID_65_);}
	.st66{fill:url(#SVGID_66_);}
	.st67{opacity:0.4;fill:url(#SVGID_67_);}
	.st68{opacity:0.2;fill:url(#SVGID_68_);}
	.st69{fill:url(#SVGID_69_);}
	.st70{fill:url(#SVGID_70_);}
	.st71{fill:url(#SVGID_71_);}
	.st72{fill:url(#SVGID_72_);}
	.st73{opacity:0.4;fill:url(#SVGID_73_);}
	.st74{fill:url(#SVGID_74_);}
	.st75{fill:url(#SVGID_75_);}
	.st76{fill:url(#SVGID_76_);}
	.st77{opacity:0.4;fill:url(#SVGID_77_);}
	.st78{opacity:0.2;fill:url(#SVGID_78_);}
	.st79{fill:url(#SVGID_79_);}
	.st80{fill:url(#SVGID_80_);}
	.st81{fill:url(#SVGID_81_);}
	.st82{opacity:0.4;fill:url(#SVGID_82_);}
	.st83{fill:url(#SVGID_83_);}
	.st84{fill:url(#SVGID_84_);}
	.st85{fill:url(#SVGID_85_);}
	.st86{opacity:0.4;fill:url(#SVGID_86_);}
	.st87{opacity:0.2;fill:url(#SVGID_87_);}
	.st88{fill:url(#SVGID_88_);}
	.st89{fill:url(#SVGID_89_);}
	.st90{fill:url(#SVGID_90_);}
	.st91{opacity:0.4;fill:url(#SVGID_91_);}
	.st92{opacity:0.2;fill:url(#SVGID_92_);}
	.st93{fill:url(#SVGID_101_);}
	.st94{fill:url(#SVGID_102_);}
	.st95{opacity:0.4;fill:url(#SVGID_103_);}
	.st96{fill:url(#SVGID_104_);}
	.st97{fill:url(#SVGID_105_);}
	.st98{fill:url(#SVGID_106_);}
	.st99{opacity:0.4;fill:url(#SVGID_107_);}
	.st100{opacity:0.2;fill:url(#SVGID_108_);}
	.st101{fill:url(#SVGID_109_);}
	.st102{fill:url(#SVGID_110_);}
	.st103{fill:url(#SVGID_111_);}
	.st104{opacity:0.4;fill:url(#SVGID_112_);}
	.st105{opacity:0.2;fill:url(#SVGID_113_);}
	.st106{fill:url(#SVGID_122_);}
	.st107{fill:url(#SVGID_123_);}
	.st108{fill:url(#SVGID_124_);}
	.st109{opacity:0.4;fill:url(#SVGID_125_);}
	.st110{fill:url(#SVGID_126_);}
	.st111{fill:url(#SVGID_127_);}
	.st112{fill:url(#SVGID_128_);}
	.st113{opacity:0.4;fill:url(#SVGID_129_);}
	.st114{opacity:0.2;fill:url(#SVGID_130_);}
	.st115{fill:url(#SVGID_131_);}
	.st116{fill:url(#SVGID_132_);}
	.st117{fill:url(#SVGID_133_);}
	.st118{opacity:0.4;fill:url(#SVGID_134_);}
	.st119{opacity:0.2;fill:url(#SVGID_135_);}
	.st120{fill:url(#SVGID_136_);}
	.st121{fill:url(#SVGID_137_);}
	.st122{fill:url(#SVGID_138_);}
	.st123{opacity:0.4;fill:url(#SVGID_139_);}
	.st124{fill:url(#SVGID_140_);}
	.st125{fill:url(#SVGID_141_);}
	.st126{fill:url(#SVGID_142_);}
	.st127{opacity:0.4;fill:url(#SVGID_143_);}
	.st128{opacity:0.2;fill:url(#SVGID_144_);}
	.st129{fill:url(#SVGID_145_);}
	.st130{fill:url(#SVGID_146_);}
	.st131{fill:url(#SVGID_147_);}
	.st132{opacity:0.4;fill:url(#SVGID_148_);}
	.st133{opacity:0.2;fill:url(#SVGID_149_);}
	.st134{fill:url(#SVGID_150_);}
</style>
<g id="Layer_1">
</g>
<g id="Layer_2">
</g>
<g id="Layer_3">
</g>
<g id="Layer_4">
</g>
<g id="Layer_5">
</g>
<g id="Layer_6">
</g>
<g id="Layer_7">
</g>
<g id="Layer_8">
</g>
<g id="Layer_9">
</g>
<g id="Layer_10">
	<g>
		
			<radialGradient id="SVGID_1_" cx="-7346.4189" cy="611.8234" r="959.3307" gradientTransform="matrix(-1 0 0 1 -6254.3271 0)" gradientUnits="userSpaceOnUse">
			<stop  offset="0" style="stop-color:#F8F8F8"/>
			<stop  offset="0.1559" style="stop-color:#EDE9F1"/>
			<stop  offset="1" style="stop-color:#9B9DA2"/>
		</radialGradient>
		<path class="st0" d="M471.15,928.68c0,279.09,226.27,505.32,505.36,505.32s505.36-226.23,505.36-505.32
			S1255.6,423.32,976.51,423.32S471.15,649.59,471.15,928.68z"/>
		<g>
			<path class="st5" d="M623.4,1018.09c47.49-4.28,81.41-58.16,75.81-120.34c-5.55-62.18-48.58-109.11-96.1-104.84
				c-47.45,4.28-81.41,58.16-75.81,120.3C532.89,975.4,575.92,1022.34,623.4,1018.09z"/>
			<path class="st5" d="M582.24,1063.28c-28.48,14.95-35.64,57.28-16.08,94.49c19.56,37.25,58.45,55.31,86.93,40.39
				c28.4-14.91,35.6-57.24,16.05-94.45C649.61,1066.46,610.68,1048.36,582.24,1063.28z"/>
			<path class="st5" d="M694.94,1018.39c-16.81,8.85-21.06,33.81-9.5,55.82c11.55,22.01,34.54,32.68,51.36,23.87
				c16.78-8.81,21.02-33.81,9.51-55.82C734.75,1020.25,711.75,1009.58,694.94,1018.39z"/>
			<path class="st5" d="M1443.27,946.96c-8.74-61.81-54.06-106.52-101.29-99.87c-47.19,6.65-78.37,62.18-69.64,123.99
				c8.7,61.81,54.06,106.52,101.25,99.83C1420.79,1064.26,1452.01,1008.74,1443.27,946.96z"/>
			<path class="st5" d="M1380.84,799.87c27.63-16.38,32.68-59,11.26-95.19c-21.38-36.19-61.16-52.27-88.83-35.93
				c-27.63,16.3-32.68,58.96-11.26,95.15C1313.4,800.12,1353.17,816.21,1380.84,799.87z"/>
			<path class="st5" d="M1277.17,794.16c-12.65-21.38-36.12-30.89-52.49-21.24c-16.3,9.65-19.3,34.84-6.65,56.22
				c12.65,21.42,36.15,30.89,52.49,21.24C1286.86,840.73,1289.86,815.55,1277.17,794.16z"/>
		</g>
		<g>
			
				<radialGradient id="SVGID_2_" cx="-4002.7749" cy="-2481.0005" r="144.0025" gradientTransform="matrix(-0.8392 1.1536 -1.6186 -1.3126 -6200.5073 2071.5969)" gradientUnits="userSpaceOnUse">
				<stop  offset="0" style="stop-color:#FFFFFF"/>
				<stop  offset="1" style="stop-color:#FFFFFF;stop-opacity:0"/>
			</radialGradient>
			<path class="st1" d="M1053.53,876.7C924.86,772.23,874.53,613.29,941.28,521.58c66.75-91.75,225.21-81.48,353.99,22.88
				c128.67,104.4,178.86,263.45,112.18,355.09C1340.63,991.41,1182.21,981.07,1053.53,876.7z"/>
			
				<radialGradient id="SVGID_3_" cx="-8598.3477" cy="7434.4478" r="138.9641" gradientTransform="matrix(-1.1717 -1.1007 0.222 -0.7283 -11032.4453 -2856.3623)" gradientUnits="userSpaceOnUse">
				<stop  offset="0" style="stop-color:#FFFFFF"/>
				<stop  offset="1" style="stop-color:#FFFFFF;stop-opacity:0"/>
			</radialGradient>
			<path style="opacity:0.4;fill:url(#SVGID_3_);" d="M529.86,1040.36c17.07-55.89,103.7-32.72,193.66,51.76
				c89.92,84.48,148.99,198.23,132,254.16c-17,55.86-103.67,32.75-193.66-51.72C571.97,1210.08,512.9,1096.21,529.86,1040.36z"/>
		</g>
	</g>
	<g>
		
			<radialGradient id="SVGID_4_" cx="636.5895" cy="1147.212" r="585.7761" gradientTransform="matrix(-1 0 0 -0.7305 1273.1791 1985.2366)" gradientUnits="userSpaceOnUse">
			<stop  offset="0" style="stop-color:#FFFFFF"/>
			<stop  offset="0.198" style="stop-color:#D5F3FF"/>
			<stop  offset="1" style="stop-color:#85BCF1"/>
		</radialGradient>
		<path style="fill:url(#SVGID_4_);" d="M764.37,1242c-8-117.12-105.48-209.66-224.63-209.66c-119.14,0-216.62,92.53-224.62,209.66
			c-88.74,4.39-159.36,77.74-159.36,167.56c0,92.69,75.13,167.8,167.79,167.8h432.41c92.66,0,167.79-75.12,167.79-167.8
			C923.74,1319.74,853.12,1246.38,764.37,1242z"/>
		<radialGradient id="SVGID_5_" cx="769.481" cy="1223.6522" r="665.955" gradientUnits="userSpaceOnUse">
			<stop  offset="0" style="stop-color:#D2D0D7"/>
			<stop  offset="0.1564" style="stop-color:#C9C7CE;stop-opacity:0.7966"/>
			<stop  offset="0.4696" style="stop-color:#BCBCC1;stop-opacity:0.3891"/>
			<stop  offset="0.7688" style="stop-color:#B8B8BD;stop-opacity:0"/>
		</radialGradient>
		<path class="st4" d="M764.37,1242c-8-117.12-105.48-209.66-224.63-209.66c-119.14,0-216.62,92.53-224.62,209.66
			c-88.74,4.39-159.36,77.74-159.36,167.56c0,92.69,75.13,167.8,167.79,167.8h432.41c92.66,0,167.79-75.12,167.79-167.8
			C923.74,1319.74,853.12,1246.38,764.37,1242z"/>
		
			<radialGradient id="SVGID_6_" cx="-3491.7307" cy="-2390.5325" r="70.6713" gradientTransform="matrix(-0.8392 1.1536 -1.6186 -1.3126 -6200.5073 2071.5969)" gradientUnits="userSpaceOnUse">
			<stop  offset="0" style="stop-color:#FFFFFF"/>
			<stop  offset="1" style="stop-color:#FFFFFF;stop-opacity:0"/>
		</radialGradient>
		<path class="st6" d="M539.76,1262.88c-63.16-51.24-87.84-129.26-55.09-174.29c32.75-45.03,110.53-39.94,173.7,11.24
			c63.16,51.24,87.79,129.29,55.07,174.29C680.68,1319.15,602.91,1314.09,539.76,1262.88z"/>
		
			<radialGradient id="SVGID_7_" cx="-3493.855" cy="-2521.0806" r="55.5415" gradientTransform="matrix(-0.8392 1.1536 -1.6186 -1.3126 -6200.5073 2071.5969)" gradientUnits="userSpaceOnUse">
			<stop  offset="0" style="stop-color:#FFFFFF"/>
			<stop  offset="1" style="stop-color:#FFFFFF;stop-opacity:0"/>
		</radialGradient>
		<path class="st7" d="M765.56,1414.34c-49.63-40.28-69.01-101.58-43.3-136.98c25.74-35.4,86.87-31.41,136.53,8.83
			c49.62,40.28,68.98,101.62,43.27,136.95C876.29,1458.54,815.19,1454.59,765.56,1414.34z"/>
		
			<radialGradient id="SVGID_8_" cx="246.9345" cy="1461.9449" r="40.6144" gradientTransform="matrix(0.901 -0.4338 1.2628 2.6229 -1821.6505 -2265.5002)" gradientUnits="userSpaceOnUse">
			<stop  offset="0" style="stop-color:#FFFFFF"/>
			<stop  offset="1" style="stop-color:#FFFFFF;stop-opacity:0"/>
		</radialGradient>
		<path style="opacity:0.2;fill:url(#SVGID_8_);" d="M275.72,1419.96c-36.63-57.14-79.18-84.66-95.11-61.49
			c-15.86,23.16,0.93,88.3,37.53,145.44c36.65,57.14,79.22,84.69,95.11,61.49C329.14,1542.18,312.35,1477.1,275.72,1419.96z"/>
	</g>
	<g>
		
			<radialGradient id="SVGID_9_" cx="1621.9117" cy="696.3209" r="453.5536" gradientTransform="matrix(-1 0 0 -0.7305 3243.8235 1204.975)" gradientUnits="userSpaceOnUse">
			<stop  offset="0" style="stop-color:#FFFFFF"/>
			<stop  offset="0.198" style="stop-color:#D5F3FF"/>
			<stop  offset="1" style="stop-color:#85BCF1"/>
		</radialGradient>
		<path class="st9" d="M1720.85,769.72c-6.19-90.68-81.68-162.34-173.92-162.34c-92.26,0-167.73,71.66-173.92,162.34
			c-68.71,3.4-123.39,60.2-123.39,129.72c0,71.75,58.17,129.94,129.91,129.94h334.81c71.75,0,129.91-58.19,129.91-129.94
			C1844.24,829.92,1789.56,773.12,1720.85,769.72z"/>
		<radialGradient id="SVGID_10_" cx="1325.6021" cy="852.0608" r="606.095" gradientUnits="userSpaceOnUse">
			<stop  offset="0" style="stop-color:#DAD8DF"/>
			<stop  offset="0.2099" style="stop-color:#CCCBD1;stop-opacity:0.727"/>
			<stop  offset="0.4958" style="stop-color:#BFC0C4;stop-opacity:0.3551"/>
			<stop  offset="0.7688" style="stop-color:#BBBCC0;stop-opacity:0"/>
		</radialGradient>
		<path class="st10" d="M1720.85,769.72c-6.19-90.68-81.68-162.34-173.92-162.34c-92.26,0-167.73,71.66-173.92,162.34
			c-68.71,3.4-123.39,60.2-123.39,129.72c0,71.75,58.17,129.94,129.91,129.94h334.81c71.75,0,129.91-58.19,129.91-129.94
			C1844.24,829.92,1789.56,773.12,1720.85,769.72z"/>
		
			<radialGradient id="SVGID_11_" cx="-4181.1709" cy="-2647.0693" r="54.7239" gradientTransform="matrix(-0.8392 1.1536 -1.6186 -1.3126 -6200.5073 2071.5969)" gradientUnits="userSpaceOnUse">
			<stop  offset="0" style="stop-color:#FFFFFF"/>
			<stop  offset="1" style="stop-color:#FFFFFF;stop-opacity:0"/>
		</radialGradient>
		<path style="fill:url(#SVGID_11_);" d="M1546.95,785.87c-48.91-39.69-68.01-100.07-42.65-134.94s85.59-30.95,134.51,8.68
			c48.88,39.69,67.95,100.13,42.64,134.97C1656.05,829.45,1595.84,825.53,1546.95,785.87z"/>
		
			<radialGradient id="SVGID_12_" cx="-4182.8071" cy="-2748.1462" r="43.0057" gradientTransform="matrix(-0.8392 1.1536 -1.6186 -1.3126 -6200.5073 2071.5969)" gradientUnits="userSpaceOnUse">
			<stop  offset="0" style="stop-color:#FFFFFF"/>
			<stop  offset="1" style="stop-color:#FFFFFF;stop-opacity:0"/>
		</radialGradient>
		<path style="opacity:0.4;fill:url(#SVGID_12_);" d="M1721.76,903.15c-38.42-31.19-53.43-78.67-33.51-106.06
			c19.94-27.4,67.25-24.31,105.69,6.83c38.42,31.2,53.42,78.7,33.51,106.06C1807.5,937.37,1760.2,934.28,1721.76,903.15z"/>
		
			<radialGradient id="SVGID_13_" cx="1320.2211" cy="940.0067" r="31.4444" gradientTransform="matrix(0.901 -0.4338 1.2628 2.6229 -1056.3291 -952.8654)" gradientUnits="userSpaceOnUse">
			<stop  offset="0" style="stop-color:#FFFFFF"/>
			<stop  offset="1" style="stop-color:#FFFFFF;stop-opacity:0"/>
		</radialGradient>
		<path style="opacity:0.2;fill:url(#SVGID_13_);" d="M1342.51,907.47c-28.35-44.23-61.31-65.51-73.65-47.56
			c-12.28,17.91,0.73,68.35,29.05,112.61c28.38,44.23,61.34,65.54,73.65,47.6C1383.87,1002.14,1370.87,951.73,1342.51,907.47z"/>
	</g>
	<g>
		<g>
			<g>
				<defs>
					<path id="SVGID_114_" d="M1412.81,1189.14l-0.19-0.01l-3.15-0.13c-29.32-1.18-52.13-25.91-50.95-55.23
						c1.17-28.92,25.3-51.5,54.1-50.98l0.46,0.01L1412.81,1189.14z"/>
				</defs>
				<clipPath id="SVGID_14_">
					<use xlink:href="#SVGID_114_"  style="overflow:visible;"/>
				</clipPath>
				<g style="clip-path:url(#SVGID_14_);">
					
						<image style="overflow:visible;" width="214.06" height="110.4" xlink:href="9A7BBEE5.png"  transform="matrix(1 0 0 1 1199.9412 1078.756)"/>
				</g>
			</g>
			
				<image style="overflow:visible;" width="517.67" height="359.86" xlink:href="9A7BBEE7.png"  transform="matrix(1 0 0 1 1074.8949 1082.7982)"/>
			<g>
				<defs>
					<path id="SVGID_116_" d="M1075.22,1442.65h-0.33c-29.36,0-53.17-23.8-53.17-53.17c0-29.36,23.8-53.17,53.17-53.17h0.33V1442.65
						z"/>
				</defs>
				<clipPath id="SVGID_15_">
					<use xlink:href="#SVGID_116_"  style="overflow:visible;"/>
				</clipPath>
				<g style="clip-path:url(#SVGID_15_);">
					
						<image style="overflow:visible;" width="213.65" height="106.34" xlink:href="9A7BBEE2.png"  transform="matrix(1 0 0 1 862.2211 1336.3173)"/>
				</g>
			</g>
		</g>
	</g>
	<g>
		<g>
			<g>
				<defs>
					<path id="SVGID_118_" d="M1534.33,1811.81l-0.49,0.01c-29.33,0.54-53.55-22.8-54.09-52.14c-0.53-28.81,21.98-52.68,50.57-54.04
						l3.52-0.16l0.16-0.01L1534.33,1811.81z"/>
				</defs>
				<clipPath id="SVGID_16_">
					<use xlink:href="#SVGID_118_"  style="overflow:visible;"/>
				</clipPath>
				<g style="clip-path:url(#SVGID_16_);">
					
						<image style="overflow:visible;" width="214.15" height="110.26" xlink:href="9A7BBEE3.png"  transform="matrix(1 0 0 1 1321.163 1705.4635)"/>
				</g>
			</g>
			
				<image style="overflow:visible;" width="431.99" height="313.1" xlink:href="9A7BBEED.png"  transform="matrix(1 0 0 1 1258.3947 1498.7197)"/>
			<g>
				<defs>
					<path id="SVGID_120_" d="M1258.72,1605.06h-0.33c-29.36,0-53.17-23.8-53.17-53.17s23.8-53.17,53.17-53.17h0.33V1605.06z"/>
				</defs>
				<clipPath id="SVGID_17_">
					<use xlink:href="#SVGID_120_"  style="overflow:visible;"/>
				</clipPath>
				<g style="clip-path:url(#SVGID_17_);">
					
						<image style="overflow:visible;" width="213.65" height="106.34" xlink:href="9A7BBEEF.png"  transform="matrix(1 0 0 1 1045.7208 1498.7197)"/>
				</g>
			</g>
		</g>
	</g>
</g>
<g id="Layer_9_copy">
</g>
<g id="Layer_10_copy">
</g>
</svg>
