<?xml version="1.0" encoding="utf-8"?>
<!-- Generator: Adobe Illustrator 25.2.0, SVG Export Plug-In . SVG Version: 6.00 Build 0)  -->
<svg version="1.1" xmlns="http://www.w3.org/2000/svg" xmlns:xlink="http://www.w3.org/1999/xlink" x="0px" y="0px"
	 viewBox="0 0 2000 2000" style="enable-background:new 0 0 2000 2000;" xml:space="preserve">
<style type="text/css">
	.st0{fill:url(#SVGID_1_);}
	.st1{fill:url(#SVGID_2_);}
	.st2{fill:url(#SVGID_3_);}
	.st3{opacity:0.4;fill:url(#SVGID_4_);}
	.st4{fill:url(#SVGID_5_);}
	.st5{fill:#ACADB2;}
	.st6{fill:url(#SVGID_6_);}
	.st7{opacity:0.4;fill:url(#SVGID_7_);}
	.st8{fill:url(#SVGID_8_);}
	.st9{fill:url(#SVGID_9_);}
	.st10{fill:url(#SVGID_10_);}
	.st11{opacity:0.4;fill:url(#SVGID_11_);}
	.st12{fill:url(#SVGID_12_);}
	.st13{fill:url(#SVGID_13_);}
	.st14{fill:url(#SVGID_14_);}
	.st15{opacity:0.4;fill:url(#SVGID_15_);}
	.st16{opacity:0.2;fill:url(#SVGID_16_);}
	.st17{fill:url(#SVGID_17_);}
	.st18{fill:url(#SVGID_18_);}
	.st19{opacity:0.4;fill:url(#SVGID_19_);}
	.st20{fill:url(#SVGID_20_);}
	.st21{fill:url(#SVGID_21_);}
	.st22{fill:url(#SVGID_22_);}
	.st23{opacity:0.4;fill:url(#SVGID_23_);}
	.st24{opacity:0.2;fill:url(#SVGID_24_);}
	.st25{fill:url(#SVGID_25_);}
	.st26{fill:url(#SVGID_26_);}
	.st27{fill:url(#SVGID_27_);}
	.st28{opacity:0.4;fill:url(#SVGID_28_);}
	.st29{fill:url(#SVGID_29_);}
	.st30{fill:url(#SVGID_30_);}
	.st31{fill:url(#SVGID_31_);}
	.st32{opacity:0.4;fill:url(#SVGID_32_);}
	.st33{opacity:0.2;fill:url(#SVGID_33_);}
	.st34{fill:url(#SVGID_34_);}
	.st35{fill:url(#SVGID_35_);}
	.st36{fill:url(#SVGID_36_);}
	.st37{fill:url(#SVGID_37_);}
	.st38{fill:url(#SVGID_38_);}
	.st39{fill:url(#SVGID_39_);}
	.st40{fill:url(#SVGID_40_);}
	.st41{fill:url(#SVGID_41_);}
	.st42{fill:url(#SVGID_42_);}
	.st43{fill:url(#SVGID_43_);}
	.st44{opacity:0.4;fill:url(#SVGID_44_);}
	.st45{fill:url(#SVGID_45_);}
	.st46{fill:url(#SVGID_46_);}
	.st47{fill:url(#SVGID_47_);}
	.st48{opacity:0.4;fill:url(#SVGID_48_);}
	.st49{opacity:0.2;fill:url(#SVGID_49_);}
	.st50{fill:url(#SVGID_50_);}
	.st51{fill:url(#SVGID_51_);}
	.st52{fill:url(#SVGID_52_);}
	.st53{fill:url(#SVGID_53_);}
	.st54{fill:url(#SVGID_54_);}
	.st55{fill:url(#SVGID_55_);}
	.st56{fill:url(#SVGID_56_);}
	.st57{fill:url(#SVGID_57_);}
	.st58{fill:url(#SVGID_58_);}
	.st59{fill:url(#SVGID_59_);}
	.st60{fill:url(#SVGID_60_);}
	.st61{fill:url(#SVGID_61_);}
	.st62{fill:url(#SVGID_62_);}
	.st63{opacity:0.4;fill:url(#SVGID_63_);}
	.st64{fill:url(#SVGID_64_);}
	.st65{fill:url(#SVGID_65_);}
	.st66{fill:url(#SVGID_66_);}
	.st67{opacity:0.4;fill:url(#SVGID_67_);}
	.st68{opacity:0.2;fill:url(#SVGID_68_);}
	.st69{fill:url(#SVGID_69_);}
	.st70{fill:url(#SVGID_70_);}
	.st71{fill:url(#SVGID_71_);}
	.st72{fill:url(#SVGID_72_);}
	.st73{opacity:0.4;fill:url(#SVGID_73_);}
	.st74{fill:url(#SVGID_74_);}
	.st75{fill:url(#SVGID_75_);}
	.st76{fill:url(#SVGID_76_);}
	.st77{opacity:0.4;fill:url(#SVGID_77_);}
	.st78{opacity:0.2;fill:url(#SVGID_78_);}
	.st79{fill:url(#SVGID_79_);}
	.st80{fill:url(#SVGID_80_);}
	.st81{fill:url(#SVGID_81_);}
	.st82{opacity:0.4;fill:url(#SVGID_82_);}
	.st83{fill:url(#SVGID_83_);}
	.st84{fill:url(#SVGID_84_);}
	.st85{fill:url(#SVGID_85_);}
	.st86{opacity:0.4;fill:url(#SVGID_86_);}
	.st87{opacity:0.2;fill:url(#SVGID_87_);}
	.st88{fill:url(#SVGID_88_);}
	.st89{fill:url(#SVGID_89_);}
	.st90{fill:url(#SVGID_90_);}
	.st91{opacity:0.4;fill:url(#SVGID_91_);}
	.st92{opacity:0.2;fill:url(#SVGID_92_);}
	.st93{fill:url(#SVGID_101_);}
	.st94{fill:url(#SVGID_102_);}
	.st95{opacity:0.4;fill:url(#SVGID_103_);}
	.st96{fill:url(#SVGID_104_);}
	.st97{fill:url(#SVGID_105_);}
	.st98{fill:url(#SVGID_106_);}
	.st99{opacity:0.4;fill:url(#SVGID_107_);}
	.st100{opacity:0.2;fill:url(#SVGID_108_);}
	.st101{fill:url(#SVGID_109_);}
	.st102{fill:url(#SVGID_110_);}
	.st103{fill:url(#SVGID_111_);}
	.st104{opacity:0.4;fill:url(#SVGID_112_);}
	.st105{opacity:0.2;fill:url(#SVGID_113_);}
	.st106{fill:url(#SVGID_122_);}
	.st107{fill:url(#SVGID_123_);}
	.st108{fill:url(#SVGID_124_);}
	.st109{opacity:0.4;fill:url(#SVGID_125_);}
	.st110{fill:url(#SVGID_126_);}
	.st111{fill:url(#SVGID_127_);}
	.st112{fill:url(#SVGID_128_);}
	.st113{opacity:0.4;fill:url(#SVGID_129_);}
	.st114{opacity:0.2;fill:url(#SVGID_130_);}
	.st115{fill:url(#SVGID_131_);}
	.st116{fill:url(#SVGID_132_);}
	.st117{fill:url(#SVGID_133_);}
	.st118{opacity:0.4;fill:url(#SVGID_134_);}
	.st119{opacity:0.2;fill:url(#SVGID_135_);}
	.st120{fill:url(#SVGID_136_);}
	.st121{fill:url(#SVGID_137_);}
	.st122{fill:url(#SVGID_138_);}
	.st123{opacity:0.4;fill:url(#SVGID_139_);}
	.st124{fill:url(#SVGID_140_);}
	.st125{fill:url(#SVGID_141_);}
	.st126{fill:url(#SVGID_142_);}
	.st127{opacity:0.4;fill:url(#SVGID_143_);}
	.st128{opacity:0.2;fill:url(#SVGID_144_);}
	.st129{fill:url(#SVGID_145_);}
	.st130{fill:url(#SVGID_146_);}
	.st131{fill:url(#SVGID_147_);}
	.st132{opacity:0.4;fill:url(#SVGID_148_);}
	.st133{opacity:0.2;fill:url(#SVGID_149_);}
	.st134{fill:url(#SVGID_150_);}
</style>
<g id="Layer_1">
</g>
<g id="Layer_2">
	<g>
		
			<radialGradient id="SVGID_1_" cx="4721.6245" cy="576.5603" r="1195.6543" gradientTransform="matrix(-1 0 0 1 5865.6729 0)" gradientUnits="userSpaceOnUse">
			<stop  offset="0" style="stop-color:#F8F8F8"/>
			<stop  offset="0.1559" style="stop-color:#EDE9F1"/>
			<stop  offset="1" style="stop-color:#9B9DA2"/>
		</radialGradient>
		<path class="st0" d="M370.15,971.48c0,347.84,282.01,629.81,629.85,629.81s629.85-281.96,629.85-629.81
			S1347.84,341.62,1000,341.62S370.15,623.63,370.15,971.48z"/>
		<g>
			<path class="st5" d="M559.9,1082.91c59.18-5.33,101.46-72.48,94.49-149.98c-6.92-77.49-60.55-135.99-119.77-130.66
				c-59.14,5.33-101.46,72.48-94.49,149.93C447.1,1029.7,500.72,1088.2,559.9,1082.91z"/>
			<path class="st5" d="M508.6,1139.22c-35.49,18.63-44.42,71.39-20.04,117.77c24.37,46.43,72.85,68.93,108.34,50.34
				c35.4-18.59,44.37-71.35,20-117.72C592.57,1143.19,544.05,1120.64,508.6,1139.22z"/>
			<path class="st5" d="M649.06,1083.28c-20.96,11.02-26.24,42.14-11.85,69.57c14.4,27.43,43.05,40.73,64.01,29.75
				c20.91-10.98,26.2-42.14,11.85-69.57C698.67,1085.6,670.02,1072.3,649.06,1083.28z"/>
			<path class="st5" d="M1581.74,994.26c-10.89-77.04-67.38-132.76-126.24-124.47c-58.82,8.29-97.68,77.5-86.79,154.54
				c10.84,77.04,67.38,132.76,126.2,124.42C1553.72,1140.45,1592.63,1071.25,1581.74,994.26z"/>
			<path class="st5" d="M1503.93,810.93c34.44-20.41,40.73-73.53,14.03-118.64c-26.65-45.1-76.22-65.15-110.71-44.78
				c-34.44,20.32-40.73,73.49-14.03,118.59C1419.87,811.24,1469.44,831.29,1503.93,810.93z"/>
			<path class="st5" d="M1374.72,803.82c-15.76-26.65-45.01-38.5-65.42-26.47c-20.32,12.03-24.05,43.42-8.29,70.07
				c15.76,26.7,45.06,38.5,65.42,26.47C1386.8,861.86,1390.53,830.47,1374.72,803.82z"/>
		</g>
		<g>
			
				<radialGradient id="SVGID_2_" cx="3597.3589" cy="2439.8367" r="179.4763" gradientTransform="matrix(-0.8392 1.1536 -1.6186 -1.3126 8214.6162 -247.7671)" gradientUnits="userSpaceOnUse">
				<stop  offset="0" style="stop-color:#FFFFFF"/>
				<stop  offset="1" style="stop-color:#FFFFFF;stop-opacity:0"/>
			</radialGradient>
			<path class="st1" d="M1095.99,906.69c-160.37-130.21-223.1-328.3-139.91-442.6c83.19-114.35,280.69-101.55,441.19,28.52
				c160.37,130.12,222.92,328.34,139.82,442.56C1453.81,1049.66,1256.36,1036.76,1095.99,906.69z"/>
			
				<radialGradient id="SVGID_3_" cx="1899.8073" cy="5372.251" r="173.1968" gradientTransform="matrix(-1.1717 -1.1007 0.222 -0.7283 1679.6169 7305.0459)" gradientUnits="userSpaceOnUse">
				<stop  offset="0" style="stop-color:#FFFFFF"/>
				<stop  offset="1" style="stop-color:#FFFFFF;stop-opacity:0"/>
			</radialGradient>
			<path style="opacity:0.4;fill:url(#SVGID_3_);" d="M443.32,1110.66c21.28-69.66,129.25-40.78,241.37,64.51
				c112.07,105.29,185.7,247.07,164.51,316.77c-21.18,69.61-129.21,40.82-241.37-64.47C495.8,1322.19,422.18,1180.27,443.32,1110.66
				z"/>
		</g>
	</g>
</g>
<g id="Layer_3">
</g>
<g id="Layer_4">
</g>
<g id="Layer_5">
</g>
<g id="Layer_6">
</g>
<g id="Layer_7">
</g>
<g id="Layer_8">
</g>
<g id="Layer_9">
</g>
<g id="Layer_10">
</g>
<g id="Layer_9_copy">
</g>
<g id="Layer_10_copy">
</g>
</svg>
