<?xml version="1.0" encoding="utf-8"?>
<!-- Generator: Adobe Illustrator 25.2.0, SVG Export Plug-In . SVG Version: 6.00 Build 0)  -->
<svg version="1.1" xmlns="http://www.w3.org/2000/svg" xmlns:xlink="http://www.w3.org/1999/xlink" x="0px" y="0px"
	 viewBox="0 0 2000 2000" style="enable-background:new 0 0 2000 2000;" xml:space="preserve">
<style type="text/css">
	.st0{fill:url(#SVGID_1_);}
	.st1{fill:url(#SVGID_2_);}
	.st2{fill:url(#SVGID_3_);}
	.st3{opacity:0.4;fill:url(#SVGID_4_);}
	.st4{fill:url(#SVGID_5_);}
	.st5{fill:#ACADB2;}
	.st6{fill:url(#SVGID_6_);}
	.st7{opacity:0.4;fill:url(#SVGID_7_);}
	.st8{fill:url(#SVGID_8_);}
	.st9{fill:url(#SVGID_9_);}
	.st10{fill:url(#SVGID_10_);}
	.st11{opacity:0.4;fill:url(#SVGID_11_);}
	.st12{fill:url(#SVGID_12_);}
	.st13{fill:url(#SVGID_13_);}
	.st14{fill:url(#SVGID_14_);}
	.st15{opacity:0.4;fill:url(#SVGID_15_);}
	.st16{opacity:0.2;fill:url(#SVGID_16_);}
	.st17{fill:url(#SVGID_17_);}
	.st18{fill:url(#SVGID_18_);}
	.st19{opacity:0.4;fill:url(#SVGID_19_);}
	.st20{fill:url(#SVGID_20_);}
	.st21{fill:url(#SVGID_21_);}
	.st22{fill:url(#SVGID_22_);}
	.st23{opacity:0.4;fill:url(#SVGID_23_);}
	.st24{opacity:0.2;fill:url(#SVGID_24_);}
	.st25{fill:url(#SVGID_25_);}
	.st26{fill:url(#SVGID_26_);}
	.st27{fill:url(#SVGID_27_);}
	.st28{opacity:0.4;fill:url(#SVGID_28_);}
	.st29{fill:url(#SVGID_29_);}
	.st30{fill:url(#SVGID_30_);}
	.st31{fill:url(#SVGID_31_);}
	.st32{opacity:0.4;fill:url(#SVGID_32_);}
	.st33{opacity:0.2;fill:url(#SVGID_33_);}
	.st34{fill:url(#SVGID_34_);}
	.st35{fill:url(#SVGID_35_);}
	.st36{fill:url(#SVGID_36_);}
	.st37{fill:url(#SVGID_37_);}
	.st38{fill:url(#SVGID_38_);}
	.st39{fill:url(#SVGID_39_);}
	.st40{fill:url(#SVGID_40_);}
	.st41{fill:url(#SVGID_41_);}
	.st42{fill:url(#SVGID_42_);}
	.st43{fill:url(#SVGID_43_);}
	.st44{opacity:0.4;fill:url(#SVGID_44_);}
	.st45{fill:url(#SVGID_45_);}
	.st46{fill:url(#SVGID_46_);}
	.st47{fill:url(#SVGID_47_);}
	.st48{opacity:0.4;fill:url(#SVGID_48_);}
	.st49{opacity:0.2;fill:url(#SVGID_49_);}
	.st50{fill:url(#SVGID_50_);}
	.st51{fill:url(#SVGID_51_);}
	.st52{fill:url(#SVGID_52_);}
	.st53{fill:url(#SVGID_53_);}
	.st54{fill:url(#SVGID_54_);}
	.st55{fill:url(#SVGID_55_);}
	.st56{fill:url(#SVGID_56_);}
	.st57{fill:url(#SVGID_57_);}
	.st58{fill:url(#SVGID_58_);}
	.st59{fill:url(#SVGID_59_);}
	.st60{fill:url(#SVGID_60_);}
	.st61{fill:url(#SVGID_61_);}
	.st62{fill:url(#SVGID_62_);}
	.st63{opacity:0.4;fill:url(#SVGID_63_);}
	.st64{fill:url(#SVGID_64_);}
	.st65{fill:url(#SVGID_65_);}
	.st66{fill:url(#SVGID_66_);}
	.st67{opacity:0.4;fill:url(#SVGID_67_);}
	.st68{opacity:0.2;fill:url(#SVGID_68_);}
	.st69{fill:url(#SVGID_69_);}
	.st70{fill:url(#SVGID_70_);}
	.st71{fill:url(#SVGID_71_);}
	.st72{fill:url(#SVGID_72_);}
	.st73{opacity:0.4;fill:url(#SVGID_73_);}
	.st74{fill:url(#SVGID_74_);}
	.st75{fill:url(#SVGID_75_);}
	.st76{fill:url(#SVGID_76_);}
	.st77{opacity:0.4;fill:url(#SVGID_77_);}
	.st78{opacity:0.2;fill:url(#SVGID_78_);}
	.st79{fill:url(#SVGID_79_);}
	.st80{fill:url(#SVGID_80_);}
	.st81{fill:url(#SVGID_81_);}
	.st82{opacity:0.4;fill:url(#SVGID_82_);}
	.st83{fill:url(#SVGID_83_);}
	.st84{fill:url(#SVGID_84_);}
	.st85{fill:url(#SVGID_85_);}
	.st86{opacity:0.4;fill:url(#SVGID_86_);}
	.st87{opacity:0.2;fill:url(#SVGID_87_);}
	.st88{fill:url(#SVGID_88_);}
	.st89{fill:url(#SVGID_89_);}
	.st90{fill:url(#SVGID_90_);}
	.st91{opacity:0.4;fill:url(#SVGID_91_);}
	.st92{opacity:0.2;fill:url(#SVGID_92_);}
	.st93{fill:url(#SVGID_101_);}
	.st94{fill:url(#SVGID_102_);}
	.st95{opacity:0.4;fill:url(#SVGID_103_);}
	.st96{fill:url(#SVGID_104_);}
	.st97{fill:url(#SVGID_105_);}
	.st98{fill:url(#SVGID_106_);}
	.st99{opacity:0.4;fill:url(#SVGID_107_);}
	.st100{opacity:0.2;fill:url(#SVGID_108_);}
	.st101{fill:url(#SVGID_109_);}
	.st102{fill:url(#SVGID_110_);}
	.st103{fill:url(#SVGID_111_);}
	.st104{opacity:0.4;fill:url(#SVGID_112_);}
	.st105{opacity:0.2;fill:url(#SVGID_113_);}
	.st106{fill:url(#SVGID_122_);}
	.st107{fill:url(#SVGID_123_);}
	.st108{fill:url(#SVGID_124_);}
	.st109{opacity:0.4;fill:url(#SVGID_125_);}
	.st110{fill:url(#SVGID_126_);}
	.st111{fill:url(#SVGID_127_);}
	.st112{fill:url(#SVGID_128_);}
	.st113{opacity:0.4;fill:url(#SVGID_129_);}
	.st114{opacity:0.2;fill:url(#SVGID_130_);}
	.st115{fill:url(#SVGID_131_);}
	.st116{fill:url(#SVGID_132_);}
	.st117{fill:url(#SVGID_133_);}
	.st118{opacity:0.4;fill:url(#SVGID_134_);}
	.st119{opacity:0.2;fill:url(#SVGID_135_);}
	.st120{fill:url(#SVGID_136_);}
	.st121{fill:url(#SVGID_137_);}
	.st122{fill:url(#SVGID_138_);}
	.st123{opacity:0.4;fill:url(#SVGID_139_);}
	.st124{fill:url(#SVGID_140_);}
	.st125{fill:url(#SVGID_141_);}
	.st126{fill:url(#SVGID_142_);}
	.st127{opacity:0.4;fill:url(#SVGID_143_);}
	.st128{opacity:0.2;fill:url(#SVGID_144_);}
	.st129{fill:url(#SVGID_145_);}
	.st130{fill:url(#SVGID_146_);}
	.st131{fill:url(#SVGID_147_);}
	.st132{opacity:0.4;fill:url(#SVGID_148_);}
	.st133{opacity:0.2;fill:url(#SVGID_149_);}
	.st134{fill:url(#SVGID_150_);}
</style>
<g id="Layer_1">
</g>
<g id="Layer_2">
</g>
<g id="Layer_3">
	<g>
		<g>
			<linearGradient id="SVGID_1_" gradientUnits="userSpaceOnUse" x1="1931.3555" y1="216.6758" x2="1019.8661" y2="1235.2371">
				<stop  offset="0" style="stop-color:#FFBA24"/>
				<stop  offset="1" style="stop-color:#FF5500"/>
			</linearGradient>
			<polygon class="st0" points="1864.29,1068.28 1750.67,1075.77 1729.26,1187.61 1619.93,1155.74 1561.59,1253.52 1469.76,1186.22 
				1381.47,1258.12 1318.2,1163.48 1210.67,1200.83 1183.57,1090.25 1069.73,1088.57 1082.09,975.37 975.7,934.89 1026.03,832.78 
				939.9,758.33 1022.13,679.55 966.65,580.16 1070.85,534.27 1052.71,421.87 1166.29,414.41 1187.72,302.58 1297.05,334.41 
				1355.39,236.67 1447.23,303.94 1535.51,232.06 1598.8,326.71 1706.33,289.32 1733.41,399.94 1847.25,401.58 1834.87,514.78 
				1941.3,555.26 1890.97,657.37 1977.1,731.86 1894.87,810.6 1950.37,910.02 1846.14,955.88 			"/>
			
				<radialGradient id="SVGID_2_" cx="279.3315" cy="504.2362" r="729.2027" gradientTransform="matrix(-1 0 0 1 1825.6729 0)" gradientUnits="userSpaceOnUse">
				<stop  offset="0" style="stop-color:#FFF4C3"/>
				<stop  offset="0.1559" style="stop-color:#FFE036"/>
				<stop  offset="1" style="stop-color:#FA761C"/>
			</radialGradient>
			<circle class="st1" cx="1458.49" cy="745.08" r="384.12"/>
			<g>
				
					<radialGradient id="SVGID_3_" cx="458.4504" cy="1548.1458" r="109.4609" gradientTransform="matrix(-0.8392 1.1536 -1.6186 -1.3126 4499.4326 2082.5049)" gradientUnits="userSpaceOnUse">
					<stop  offset="0" style="stop-color:#FFFFFF"/>
					<stop  offset="1" style="stop-color:#FFFFFF;stop-opacity:0"/>
				</radialGradient>
				<path class="st2" d="M1517.03,705.56c-97.84-79.37-136.04-200.2-85.33-269.95c50.76-69.75,171.17-61.9,269.06,17.4
					c97.82,79.37,135.97,200.24,85.28,269.95C1735.28,792.71,1614.83,784.9,1517.03,705.56z"/>
				
					<radialGradient id="SVGID_4_" cx="-1784.3739" cy="8374.8848" r="105.6233" gradientTransform="matrix(-1.1717 -1.1007 0.222 -0.7283 -2707.217 5081.6318)" gradientUnits="userSpaceOnUse">
					<stop  offset="0" style="stop-color:#FFFFFF"/>
					<stop  offset="1" style="stop-color:#FFFFFF;stop-opacity:0"/>
				</radialGradient>
				<path class="st3" d="M1118.99,829.99c12.97-42.47,78.81-24.9,147.2,39.34c68.35,64.2,113.25,150.61,100.35,193.19
					c-12.92,42.44-78.83,24.86-147.21-39.34C1151,958.95,1106.07,872.43,1118.99,829.99z"/>
			</g>
		</g>
		<g>
			
				<radialGradient id="SVGID_5_" cx="1152.9651" cy="697.5775" r="1254.4392" gradientTransform="matrix(-1 0 0 -0.7305 2305.9302 1207.1494)" gradientUnits="userSpaceOnUse">
				<stop  offset="0" style="stop-color:#FFFFFF"/>
				<stop  offset="0.198" style="stop-color:#D5F3FF"/>
				<stop  offset="1" style="stop-color:#85BCF1"/>
			</radialGradient>
			<path class="st4" d="M1426.62,900.57c-17.12-250.81-225.89-448.99-481.03-448.99c-255.17,0-463.9,198.18-481.03,448.99
				c-190.06,9.41-341.28,166.48-341.28,358.84c0,198.46,160.88,359.33,359.31,359.33h926.01c198.43,0,359.31-160.87,359.31-359.33
				C1767.9,1067.06,1616.66,909.99,1426.62,900.57z"/>
			<radialGradient id="SVGID_6_" cx="1330.7186" cy="802.772" r="1066.4124" gradientUnits="userSpaceOnUse">
				<stop  offset="0" style="stop-color:#FFE036"/>
				<stop  offset="5.172825e-03" style="stop-color:#FFDF36;stop-opacity:0.9933"/>
				<stop  offset="0.1623" style="stop-color:#FDB92C;stop-opacity:0.789"/>
				<stop  offset="0.319" style="stop-color:#FC9C25;stop-opacity:0.5851"/>
				<stop  offset="0.4735" style="stop-color:#FB8720;stop-opacity:0.3841"/>
				<stop  offset="0.6247" style="stop-color:#FA7A1D;stop-opacity:0.1875"/>
				<stop  offset="0.7688" style="stop-color:#FA761C;stop-opacity:0"/>
			</radialGradient>
			<path class="st6" d="M1426.62,900.57c-17.12-250.81-225.89-448.99-481.03-448.99c-255.17,0-463.9,198.18-481.03,448.99
				c-190.06,9.41-341.28,166.48-341.28,358.84c0,198.46,160.88,359.33,359.31,359.33h926.01c198.43,0,359.31-160.87,359.31-359.33
				C1767.9,1067.06,1616.66,909.99,1426.62,900.57z"/>
			
				<radialGradient id="SVGID_7_" cx="799.9034" cy="1702.4149" r="151.3423" gradientTransform="matrix(-0.8392 1.1536 -1.6186 -1.3126 4499.4326 2082.5049)" gradientUnits="userSpaceOnUse">
				<stop  offset="0" style="stop-color:#FFFFFF"/>
				<stop  offset="1" style="stop-color:#FFFFFF;stop-opacity:0"/>
			</radialGradient>
			<path style="fill:url(#SVGID_7_);" d="M945.62,945.28c-135.25-109.74-188.1-276.82-117.97-373.21
				c70.16-96.46,236.7-85.61,372,24.03c135.24,109.74,187.98,276.89,117.92,373.24C1247.37,1065.8,1080.85,1054.96,945.62,945.28z"
				/>
			
				<radialGradient id="SVGID_8_" cx="795.3615" cy="1422.8485" r="118.9391" gradientTransform="matrix(-0.8392 1.1536 -1.6186 -1.3126 4499.4326 2082.5049)" gradientUnits="userSpaceOnUse">
				<stop  offset="0" style="stop-color:#FFFFFF"/>
				<stop  offset="1" style="stop-color:#FFFFFF;stop-opacity:0"/>
			</radialGradient>
			<path style="opacity:0.4;fill:url(#SVGID_8_);" d="M1429.15,1269.63c-106.29-86.27-147.81-217.57-92.71-293.35
				c55.13-75.78,186.01-67.23,292.36,18.94c106.28,86.2,147.74,217.57,92.67,293.28C1666.28,1364.31,1535.42,1355.8,1429.15,1269.63
				z"/>
			
				<radialGradient id="SVGID_9_" cx="318.5247" cy="1371.5896" r="86.9735" gradientTransform="matrix(0.901 -0.4338 1.2628 2.6229 -1700.4667 -2087.8064)" gradientUnits="userSpaceOnUse">
				<stop  offset="0" style="stop-color:#FFFFFF"/>
				<stop  offset="1" style="stop-color:#FFFFFF;stop-opacity:0"/>
			</radialGradient>
			<path style="opacity:0.2;fill:url(#SVGID_9_);" d="M380.17,1281.66c-78.45-122.37-169.55-181.27-203.68-131.64
				c-33.98,49.59,1.95,189.08,80.35,311.48c78.48,122.37,169.66,181.3,203.69,131.65C494.54,1543.42,458.62,1404.07,380.17,1281.66z
				"/>
		</g>
	</g>
</g>
<g id="Layer_4">
</g>
<g id="Layer_5">
</g>
<g id="Layer_6">
</g>
<g id="Layer_7">
</g>
<g id="Layer_8">
</g>
<g id="Layer_9">
</g>
<g id="Layer_10">
</g>
<g id="Layer_9_copy">
</g>
<g id="Layer_10_copy">
</g>
</svg>
