<?xml version="1.0" encoding="utf-8"?>
<!-- Generator: Adobe Illustrator 25.2.0, SVG Export Plug-In . SVG Version: 6.00 Build 0)  -->
<svg version="1.1" xmlns="http://www.w3.org/2000/svg" xmlns:xlink="http://www.w3.org/1999/xlink" x="0px" y="0px"
	 viewBox="0 0 2000 2000" style="enable-background:new 0 0 2000 2000;" xml:space="preserve">
<style type="text/css">
	.st0{fill:url(#SVGID_1_);}
	.st1{fill:url(#SVGID_2_);}
	.st2{fill:url(#SVGID_3_);}
	.st3{opacity:0.4;fill:url(#SVGID_4_);}
	.st4{fill:url(#SVGID_5_);}
	.st5{fill:#ACADB2;}
	.st6{fill:url(#SVGID_6_);}
	.st7{opacity:0.4;fill:url(#SVGID_7_);}
	.st8{fill:url(#SVGID_8_);}
	.st9{fill:url(#SVGID_9_);}
	.st10{fill:url(#SVGID_10_);}
	.st11{opacity:0.4;fill:url(#SVGID_11_);}
	.st12{fill:url(#SVGID_12_);}
	.st13{fill:url(#SVGID_13_);}
	.st14{fill:url(#SVGID_14_);}
	.st15{opacity:0.4;fill:url(#SVGID_15_);}
	.st16{opacity:0.2;fill:url(#SVGID_16_);}
	.st17{fill:url(#SVGID_17_);}
	.st18{fill:url(#SVGID_18_);}
	.st19{opacity:0.4;fill:url(#SVGID_19_);}
	.st20{fill:url(#SVGID_20_);}
	.st21{fill:url(#SVGID_21_);}
	.st22{fill:url(#SVGID_22_);}
	.st23{opacity:0.4;fill:url(#SVGID_23_);}
	.st24{opacity:0.2;fill:url(#SVGID_24_);}
	.st25{fill:url(#SVGID_25_);}
	.st26{fill:url(#SVGID_26_);}
	.st27{fill:url(#SVGID_27_);}
	.st28{opacity:0.4;fill:url(#SVGID_28_);}
	.st29{fill:url(#SVGID_29_);}
	.st30{fill:url(#SVGID_30_);}
	.st31{fill:url(#SVGID_31_);}
	.st32{opacity:0.4;fill:url(#SVGID_32_);}
	.st33{opacity:0.2;fill:url(#SVGID_33_);}
	.st34{fill:url(#SVGID_34_);}
	.st35{fill:url(#SVGID_35_);}
	.st36{fill:url(#SVGID_36_);}
	.st37{fill:url(#SVGID_37_);}
	.st38{fill:url(#SVGID_38_);}
	.st39{fill:url(#SVGID_39_);}
	.st40{fill:url(#SVGID_40_);}
	.st41{fill:url(#SVGID_41_);}
	.st42{fill:url(#SVGID_42_);}
	.st43{fill:url(#SVGID_43_);}
	.st44{opacity:0.4;fill:url(#SVGID_44_);}
	.st45{fill:url(#SVGID_45_);}
	.st46{fill:url(#SVGID_46_);}
	.st47{fill:url(#SVGID_47_);}
	.st48{opacity:0.4;fill:url(#SVGID_48_);}
	.st49{opacity:0.2;fill:url(#SVGID_49_);}
	.st50{fill:url(#SVGID_50_);}
	.st51{fill:url(#SVGID_51_);}
	.st52{fill:url(#SVGID_52_);}
	.st53{fill:url(#SVGID_53_);}
	.st54{fill:url(#SVGID_54_);}
	.st55{fill:url(#SVGID_55_);}
	.st56{fill:url(#SVGID_56_);}
	.st57{fill:url(#SVGID_57_);}
	.st58{fill:url(#SVGID_58_);}
	.st59{fill:url(#SVGID_59_);}
	.st60{fill:url(#SVGID_60_);}
	.st61{fill:url(#SVGID_61_);}
	.st62{fill:url(#SVGID_62_);}
	.st63{opacity:0.4;fill:url(#SVGID_63_);}
	.st64{fill:url(#SVGID_64_);}
	.st65{fill:url(#SVGID_65_);}
	.st66{fill:url(#SVGID_66_);}
	.st67{opacity:0.4;fill:url(#SVGID_67_);}
	.st68{opacity:0.2;fill:url(#SVGID_68_);}
	.st69{fill:url(#SVGID_69_);}
	.st70{fill:url(#SVGID_70_);}
	.st71{fill:url(#SVGID_71_);}
	.st72{fill:url(#SVGID_72_);}
	.st73{opacity:0.4;fill:url(#SVGID_73_);}
	.st74{fill:url(#SVGID_74_);}
	.st75{fill:url(#SVGID_75_);}
	.st76{fill:url(#SVGID_76_);}
	.st77{opacity:0.4;fill:url(#SVGID_77_);}
	.st78{opacity:0.2;fill:url(#SVGID_78_);}
	.st79{fill:url(#SVGID_79_);}
	.st80{fill:url(#SVGID_80_);}
	.st81{fill:url(#SVGID_81_);}
	.st82{opacity:0.4;fill:url(#SVGID_82_);}
	.st83{fill:url(#SVGID_83_);}
	.st84{fill:url(#SVGID_84_);}
	.st85{fill:url(#SVGID_85_);}
	.st86{opacity:0.4;fill:url(#SVGID_86_);}
	.st87{opacity:0.2;fill:url(#SVGID_87_);}
	.st88{fill:url(#SVGID_88_);}
	.st89{fill:url(#SVGID_89_);}
	.st90{fill:url(#SVGID_90_);}
	.st91{opacity:0.4;fill:url(#SVGID_91_);}
	.st92{opacity:0.2;fill:url(#SVGID_92_);}
	.st93{fill:url(#SVGID_101_);}
	.st94{fill:url(#SVGID_102_);}
	.st95{opacity:0.4;fill:url(#SVGID_103_);}
	.st96{fill:url(#SVGID_104_);}
	.st97{fill:url(#SVGID_105_);}
	.st98{fill:url(#SVGID_106_);}
	.st99{opacity:0.4;fill:url(#SVGID_107_);}
	.st100{opacity:0.2;fill:url(#SVGID_108_);}
	.st101{fill:url(#SVGID_109_);}
	.st102{fill:url(#SVGID_110_);}
	.st103{fill:url(#SVGID_111_);}
	.st104{opacity:0.4;fill:url(#SVGID_112_);}
	.st105{opacity:0.2;fill:url(#SVGID_113_);}
	.st106{fill:url(#SVGID_122_);}
	.st107{fill:url(#SVGID_123_);}
	.st108{fill:url(#SVGID_124_);}
	.st109{opacity:0.4;fill:url(#SVGID_125_);}
	.st110{fill:url(#SVGID_126_);}
	.st111{fill:url(#SVGID_127_);}
	.st112{fill:url(#SVGID_128_);}
	.st113{opacity:0.4;fill:url(#SVGID_129_);}
	.st114{opacity:0.2;fill:url(#SVGID_130_);}
	.st115{fill:url(#SVGID_131_);}
	.st116{fill:url(#SVGID_132_);}
	.st117{fill:url(#SVGID_133_);}
	.st118{opacity:0.4;fill:url(#SVGID_134_);}
	.st119{opacity:0.2;fill:url(#SVGID_135_);}
	.st120{fill:url(#SVGID_136_);}
	.st121{fill:url(#SVGID_137_);}
	.st122{fill:url(#SVGID_138_);}
	.st123{opacity:0.4;fill:url(#SVGID_139_);}
	.st124{fill:url(#SVGID_140_);}
	.st125{fill:url(#SVGID_141_);}
	.st126{fill:url(#SVGID_142_);}
	.st127{opacity:0.4;fill:url(#SVGID_143_);}
	.st128{opacity:0.2;fill:url(#SVGID_144_);}
	.st129{fill:url(#SVGID_145_);}
	.st130{fill:url(#SVGID_146_);}
	.st131{fill:url(#SVGID_147_);}
	.st132{opacity:0.4;fill:url(#SVGID_148_);}
	.st133{opacity:0.2;fill:url(#SVGID_149_);}
	.st134{fill:url(#SVGID_150_);}
</style>
<g id="Layer_1">
</g>
<g id="Layer_2">
</g>
<g id="Layer_3">
</g>
<g id="Layer_4">
</g>
<g id="Layer_5">
</g>
<g id="Layer_6">
</g>
<g id="Layer_7">
</g>
<g id="Layer_8">
</g>
<g id="Layer_9">
</g>
<g id="Layer_10">
</g>
<g id="Layer_9_copy">
	<g>
		<linearGradient id="SVGID_1_" gradientUnits="userSpaceOnUse" x1="1632.5042" y1="216.7109" x2="568.8975" y2="1405.2587">
			<stop  offset="0" style="stop-color:#FFBA24"/>
			<stop  offset="1" style="stop-color:#FF5500"/>
		</linearGradient>
		<polygon class="st0" points="1554.24,1210.45 1421.66,1219.16 1396.67,1349.66 1269.13,1312.5 1201.02,1426.57 1093.86,1348.02 
			990.86,1431.94 917.02,1321.49 791.53,1365.1 759.94,1236.06 627.08,1234.11 641.53,1102.05 517.36,1054.79 576.1,935.6 
			475.6,848.72 571.53,756.83 506.79,640.82 628.38,587.3 607.22,456.15 739.78,447.44 764.79,316.95 892.33,354.11 960.42,240.01 
			1067.59,318.55 1170.6,234.67 1244.43,345.09 1369.92,301.48 1401.55,430.55 1534.39,432.49 1519.94,564.53 1644.11,611.79 
			1585.37,730.98 1685.89,817.86 1589.94,909.75 1654.68,1025.76 1533.08,1079.28 		"/>
		
			<radialGradient id="SVGID_2_" cx="8722.4258" cy="552.2776" r="850.8904" gradientTransform="matrix(-1 0 0 1 9905.6729 0)" gradientUnits="userSpaceOnUse">
			<stop  offset="0" style="stop-color:#FFF4C3"/>
			<stop  offset="0.1559" style="stop-color:#FFE036"/>
			<stop  offset="1" style="stop-color:#FA761C"/>
		</radialGradient>
		<path class="st1" d="M632.5,833.27c0,247.55,200.68,448.25,448.22,448.25c247.55,0,448.25-200.7,448.25-448.25
			c0-247.52-200.7-448.19-448.25-448.19C833.18,385.08,632.5,585.75,632.5,833.27z"/>
		<g>
			
				<radialGradient id="SVGID_3_" cx="8676.29" cy="-1944.0818" r="127.7254" gradientTransform="matrix(-0.8392 1.1536 -1.6186 -1.3126 5390.6567 -11920.9434)" gradientUnits="userSpaceOnUse">
				<stop  offset="0" style="stop-color:#FFFFFF"/>
				<stop  offset="1" style="stop-color:#FFFFFF;stop-opacity:0"/>
			</radialGradient>
			<path class="st2" d="M1149.04,787.19c-114.17-92.66-158.76-233.62-99.58-315.01c59.22-81.39,199.76-72.21,313.96,20.32
				c114.14,92.6,158.66,233.65,99.52,314.98C1403.7,888.9,1263.17,879.73,1149.04,787.19z"/>
			
				<radialGradient id="SVGID_4_" cx="4368.9165" cy="-4573.3301" r="123.2477" gradientTransform="matrix(-1.1717 -1.1007 0.222 -0.7283 6963.3311 2546.1277)" gradientUnits="userSpaceOnUse">
				<stop  offset="0" style="stop-color:#FFFFFF"/>
				<stop  offset="1" style="stop-color:#FFFFFF;stop-opacity:0"/>
			</radialGradient>
			<path class="st3" d="M684.56,932.36c15.15-49.57,91.99-29.03,171.77,45.9c79.76,74.93,132.13,175.8,117.09,225.44
				c-15.09,49.54-91.96,29.03-171.76-45.9C721.92,1082.83,669.5,981.87,684.56,932.36z"/>
		</g>
	</g>
	<g>
		
			<radialGradient id="SVGID_5_" cx="688.8483" cy="1001.7914" r="585.7761" gradientTransform="matrix(-1 0 0 -0.7305 1377.6965 1733.588)" gradientUnits="userSpaceOnUse">
			<stop  offset="0" style="stop-color:#FFFFFF"/>
			<stop  offset="0.198" style="stop-color:#D5F3FF"/>
			<stop  offset="1" style="stop-color:#85BCF1"/>
		</radialGradient>
		<path class="st4" d="M816.63,1096.58c-8-117.12-105.48-209.66-224.63-209.66c-119.14,0-216.62,92.53-224.62,209.66
			c-88.74,4.39-159.36,77.74-159.36,167.56c0,92.69,75.13,167.8,167.79,167.8h432.41c92.66,0,167.79-75.12,167.79-167.8
			C976,1174.32,905.38,1100.96,816.63,1096.58z"/>
		<radialGradient id="SVGID_6_" cx="821.7396" cy="1078.2317" r="665.955" gradientUnits="userSpaceOnUse">
			<stop  offset="0" style="stop-color:#FFE036"/>
			<stop  offset="5.172825e-03" style="stop-color:#FFDF36;stop-opacity:0.9933"/>
			<stop  offset="0.1623" style="stop-color:#FDB92C;stop-opacity:0.789"/>
			<stop  offset="0.319" style="stop-color:#FC9C25;stop-opacity:0.5851"/>
			<stop  offset="0.4735" style="stop-color:#FB8720;stop-opacity:0.3841"/>
			<stop  offset="0.6247" style="stop-color:#FA7A1D;stop-opacity:0.1875"/>
			<stop  offset="0.7688" style="stop-color:#FA761C;stop-opacity:0"/>
		</radialGradient>
		<path class="st6" d="M816.63,1096.58c-8-117.12-105.48-209.66-224.63-209.66c-119.14,0-216.62,92.53-224.62,209.66
			c-88.74,4.39-159.36,77.74-159.36,167.56c0,92.69,75.13,167.8,167.79,167.8h432.41c92.66,0,167.79-75.12,167.79-167.8
			C976,1174.32,905.38,1100.96,816.63,1096.58z"/>
		
			<radialGradient id="SVGID_7_" cx="9159.6895" cy="-1821.0073" r="70.6713" gradientTransform="matrix(-0.8392 1.1536 -1.6186 -1.3126 5390.6567 -11920.9434)" gradientUnits="userSpaceOnUse">
			<stop  offset="0" style="stop-color:#FFFFFF"/>
			<stop  offset="1" style="stop-color:#FFFFFF;stop-opacity:0"/>
		</radialGradient>
		<path style="fill:url(#SVGID_7_);" d="M592.02,1117.46c-63.16-51.24-87.84-129.26-55.09-174.29
			c32.75-45.03,110.53-39.94,173.7,11.24c63.16,51.24,87.79,129.29,55.07,174.29C732.94,1173.73,655.17,1168.67,592.02,1117.46z"/>
		
			<radialGradient id="SVGID_8_" cx="9157.5654" cy="-1951.5554" r="55.5415" gradientTransform="matrix(-0.8392 1.1536 -1.6186 -1.3126 5390.6567 -11920.9434)" gradientUnits="userSpaceOnUse">
			<stop  offset="0" style="stop-color:#FFFFFF"/>
			<stop  offset="1" style="stop-color:#FFFFFF;stop-opacity:0"/>
		</radialGradient>
		<path style="opacity:0.4;fill:url(#SVGID_8_);" d="M817.82,1268.92c-49.63-40.28-69.01-101.58-43.3-136.98
			c25.74-35.4,86.87-31.41,136.53,8.83c49.62,40.28,68.98,101.62,43.27,136.95C928.54,1313.12,867.45,1309.17,817.82,1268.92z"/>
		
			<radialGradient id="SVGID_9_" cx="299.1932" cy="1316.5244" r="40.6144" gradientTransform="matrix(0.901 -0.4338 1.2628 2.6229 -1632.8458 -2006.8259)" gradientUnits="userSpaceOnUse">
			<stop  offset="0" style="stop-color:#FFFFFF"/>
			<stop  offset="1" style="stop-color:#FFFFFF;stop-opacity:0"/>
		</radialGradient>
		<path style="opacity:0.2;fill:url(#SVGID_9_);" d="M327.98,1274.54c-36.63-57.14-79.18-84.66-95.11-61.49
			c-15.86,23.16,0.93,88.3,37.53,145.44c36.65,57.14,79.22,84.69,95.11,61.49C381.4,1396.76,364.61,1331.68,327.98,1274.54z"/>
	</g>
	<g>
		
			<radialGradient id="SVGID_10_" cx="1674.1705" cy="550.9004" r="453.5536" gradientTransform="matrix(-1 0 0 -0.7305 3348.3411 953.3265)" gradientUnits="userSpaceOnUse">
			<stop  offset="0" style="stop-color:#FFFFFF"/>
			<stop  offset="0.198" style="stop-color:#D5F3FF"/>
			<stop  offset="1" style="stop-color:#85BCF1"/>
		</radialGradient>
		<path class="st10" d="M1773.11,624.3c-6.19-90.68-81.68-162.34-173.92-162.34c-92.26,0-167.73,71.66-173.92,162.34
			c-68.71,3.4-123.39,60.2-123.39,129.72c0,71.75,58.17,129.94,129.91,129.94h334.81c71.75,0,129.91-58.19,129.91-129.94
			C1896.5,684.49,1841.82,627.7,1773.11,624.3z"/>
		<radialGradient id="SVGID_11_" cx="1377.8607" cy="706.6402" r="606.095" gradientUnits="userSpaceOnUse">
			<stop  offset="0" style="stop-color:#FFE036"/>
			<stop  offset="5.172825e-03" style="stop-color:#FFDF36;stop-opacity:0.9933"/>
			<stop  offset="0.1623" style="stop-color:#FDB92C;stop-opacity:0.789"/>
			<stop  offset="0.319" style="stop-color:#FC9C25;stop-opacity:0.5851"/>
			<stop  offset="0.4735" style="stop-color:#FB8720;stop-opacity:0.3841"/>
			<stop  offset="0.6247" style="stop-color:#FA7A1D;stop-opacity:0.1875"/>
			<stop  offset="0.7688" style="stop-color:#FA761C;stop-opacity:0"/>
		</radialGradient>
		<path style="fill:url(#SVGID_11_);" d="M1773.11,624.3c-6.19-90.68-81.68-162.34-173.92-162.34
			c-92.26,0-167.73,71.66-173.92,162.34c-68.71,3.4-123.39,60.2-123.39,129.72c0,71.75,58.17,129.94,129.91,129.94h334.81
			c71.75,0,129.91-58.19,129.91-129.94C1896.5,684.49,1841.82,627.7,1773.11,624.3z"/>
		
			<radialGradient id="SVGID_12_" cx="8470.249" cy="-2077.5442" r="54.7239" gradientTransform="matrix(-0.8392 1.1536 -1.6186 -1.3126 5390.6567 -11920.9434)" gradientUnits="userSpaceOnUse">
			<stop  offset="0" style="stop-color:#FFFFFF"/>
			<stop  offset="1" style="stop-color:#FFFFFF;stop-opacity:0"/>
		</radialGradient>
		<path class="st12" d="M1599.21,640.45c-48.91-39.69-68.01-100.07-42.65-134.94s85.59-30.95,134.51,8.68
			c48.88,39.69,67.95,100.13,42.64,134.97C1708.31,684.03,1648.1,680.11,1599.21,640.45z"/>
		
			<radialGradient id="SVGID_13_" cx="8468.6133" cy="-2178.6211" r="43.0057" gradientTransform="matrix(-0.8392 1.1536 -1.6186 -1.3126 5390.6567 -11920.9434)" gradientUnits="userSpaceOnUse">
			<stop  offset="0" style="stop-color:#FFFFFF"/>
			<stop  offset="1" style="stop-color:#FFFFFF;stop-opacity:0"/>
		</radialGradient>
		<path style="opacity:0.4;fill:url(#SVGID_13_);" d="M1774.02,757.73c-38.42-31.19-53.43-78.67-33.51-106.06
			c19.94-27.4,67.25-24.31,105.69,6.83c38.42,31.2,53.42,78.7,33.51,106.06C1859.76,791.95,1812.46,788.86,1774.02,757.73z"/>
		
			<radialGradient id="SVGID_14_" cx="1372.4797" cy="794.5862" r="31.4444" gradientTransform="matrix(0.901 -0.4338 1.2628 2.6229 -867.5245 -694.191)" gradientUnits="userSpaceOnUse">
			<stop  offset="0" style="stop-color:#FFFFFF"/>
			<stop  offset="1" style="stop-color:#FFFFFF;stop-opacity:0"/>
		</radialGradient>
		<path style="opacity:0.2;fill:url(#SVGID_14_);" d="M1394.77,762.05c-28.35-44.23-61.31-65.51-73.65-47.56
			c-12.28,17.91,0.73,68.35,29.05,112.61c28.38,44.23,61.34,65.54,73.65,47.6C1436.13,856.72,1423.12,806.31,1394.77,762.05z"/>
	</g>
	<radialGradient id="SVGID_15_" cx="1561.0535" cy="1094.8823" r="470.0713" gradientUnits="userSpaceOnUse">
		<stop  offset="0" style="stop-color:#28CBE9"/>
		<stop  offset="1" style="stop-color:#0A4FBB"/>
	</radialGradient>
	<path style="fill:url(#SVGID_15_);" d="M1632.18,1307.29l-50.42-29.1l15.6-9c12.38-7.14,16.63-22.98,9.49-35.34
		c-7.14-12.37-22.98-16.62-35.34-9.48l-41.49,23.93l-38.29-22.1c1.65-6.87,2.62-13.99,2.62-21.36c0-7.37-0.97-14.49-2.62-21.37
		l38.29-22.11l41.48,23.94c4.07,2.36,8.52,3.49,12.9,3.49c8.95,0,17.64-4.65,22.43-12.95c7.14-12.37,2.9-28.19-9.47-35.34
		l-15.61-9.01l50.43-29.1c12.38-7.15,16.61-22.98,9.47-35.34c-7.14-12.38-22.94-16.63-35.34-9.47l-50.42,29.1l0.02-18.01
		c0-14.3-11.6-25.88-25.88-25.88l0,0c-14.29,0-25.88,11.58-25.88,25.86l-0.02,47.89l-38.33,22.13
		c-10.34-9.82-22.92-17.26-36.96-21.41v-44.18l41.48-23.96c12.38-7.14,16.6-22.96,9.46-35.33c-7.14-12.38-22.97-16.63-35.34-9.48
		l-15.6,9.01v-58.2c0-14.29-11.58-25.86-25.87-25.86c-14.3,0-25.88,11.58-25.88,25.86v58.2l-15.61-9.01
		c-12.37-7.15-28.19-2.9-35.34,9.48c-7.14,12.37-2.89,28.19,9.47,35.33l41.49,23.96v44.18c-14.03,4.15-26.63,11.59-36.97,21.42
		l-38.33-22.14v-47.89c0-14.29-11.59-25.86-25.88-25.86c-14.3,0-25.87,11.58-25.87,25.86v18.02l-50.41-29.1
		c-12.38-7.17-28.2-2.92-35.34,9.47c-7.15,12.37-2.92,28.19,9.47,35.34l50.41,29.1l-15.62,9c-12.36,7.14-16.61,22.98-9.47,35.36
		c4.78,8.29,13.5,12.94,22.44,12.94c4.38,0,8.83-1.11,12.9-3.47l41.49-23.94l38.31,22.11c-1.67,6.87-2.63,13.99-2.63,21.37
		c0,7.37,0.96,14.49,2.63,21.36l-38.31,22.1l-41.47-23.94c-12.38-7.17-28.2-2.9-35.34,9.47c-7.17,12.37-2.92,28.21,9.47,35.34
		l15.61,9.01l-50.42,29.12c-12.38,7.14-16.62,22.96-9.47,35.34c4.78,8.31,13.48,12.94,22.43,12.94c4.4,0,8.84-1.11,12.92-3.47
		l50.39-29.1v18.01c0,14.29,11.59,25.88,25.87,25.88c14.29,0,25.89-11.58,25.89-25.88l0.02-47.89l38.33-22.14
		c10.34,9.83,22.94,17.28,36.96,21.42v44.2l-41.48,23.94c-12.38,7.14-16.62,22.96-9.47,35.34c7.14,12.38,22.96,16.63,35.34,9.47
		l15.61-9.01v58.22c0,14.29,11.59,25.88,25.88,25.88c14.29,0,25.87-11.59,25.87-25.88v-58.2l15.59,9.01
		c4.07,2.36,8.52,3.47,12.92,3.47c8.93,0,17.64-4.63,22.42-12.94c7.16-12.37,2.92-28.19-9.44-35.34l-41.49-23.96v-44.2
		c14.03-4.13,26.63-11.58,36.97-21.41l38.33,22.11v47.9c0,14.3,11.57,25.88,25.88,25.88c14.29,0,25.87-11.58,25.87-25.88v-18.02
		l50.42,29.12c4.07,2.36,8.52,3.47,12.9,3.47c8.95,0,17.66-4.65,22.44-12.94C1648.79,1330.25,1644.55,1314.43,1632.18,1307.29z
		 M1402.97,1244.46c-21.85,0-39.62-17.77-39.62-39.62c0-21.85,17.77-39.62,39.62-39.62c21.85,0,39.62,17.77,39.62,39.62
		C1442.6,1226.68,1424.82,1244.46,1402.97,1244.46z"/>
</g>
<g id="Layer_10_copy">
</g>
</svg>
