<?xml version="1.0" encoding="utf-8"?>
<!-- Generator: Adobe Illustrator 25.2.0, SVG Export Plug-In . SVG Version: 6.00 Build 0)  -->
<svg version="1.1" xmlns="http://www.w3.org/2000/svg" xmlns:xlink="http://www.w3.org/1999/xlink" x="0px" y="0px"
	 viewBox="0 0 2000 2000" style="enable-background:new 0 0 2000 2000;" xml:space="preserve">
<style type="text/css">
	.st0{fill:url(#SVGID_1_);}
	.st1{fill:url(#SVGID_2_);}
	.st2{fill:url(#SVGID_3_);}
	.st3{opacity:0.4;fill:url(#SVGID_4_);}
	.st4{fill:url(#SVGID_5_);}
	.st5{fill:#ACADB2;}
	.st6{fill:url(#SVGID_6_);}
	.st7{opacity:0.4;fill:url(#SVGID_7_);}
	.st8{fill:url(#SVGID_8_);}
	.st9{fill:url(#SVGID_9_);}
	.st10{fill:url(#SVGID_10_);}
	.st11{opacity:0.4;fill:url(#SVGID_11_);}
	.st12{fill:url(#SVGID_12_);}
	.st13{fill:url(#SVGID_13_);}
	.st14{fill:url(#SVGID_14_);}
	.st15{opacity:0.4;fill:url(#SVGID_15_);}
	.st16{opacity:0.2;fill:url(#SVGID_16_);}
	.st17{fill:url(#SVGID_17_);}
	.st18{fill:url(#SVGID_18_);}
	.st19{opacity:0.4;fill:url(#SVGID_19_);}
	.st20{fill:url(#SVGID_20_);}
	.st21{fill:url(#SVGID_21_);}
	.st22{fill:url(#SVGID_22_);}
	.st23{opacity:0.4;fill:url(#SVGID_23_);}
	.st24{opacity:0.2;fill:url(#SVGID_24_);}
	.st25{fill:url(#SVGID_25_);}
	.st26{fill:url(#SVGID_26_);}
	.st27{fill:url(#SVGID_27_);}
	.st28{opacity:0.4;fill:url(#SVGID_28_);}
	.st29{fill:url(#SVGID_29_);}
	.st30{fill:url(#SVGID_30_);}
	.st31{fill:url(#SVGID_31_);}
	.st32{opacity:0.4;fill:url(#SVGID_32_);}
	.st33{opacity:0.2;fill:url(#SVGID_33_);}
	.st34{fill:url(#SVGID_34_);}
	.st35{fill:url(#SVGID_35_);}
	.st36{fill:url(#SVGID_36_);}
	.st37{fill:url(#SVGID_37_);}
	.st38{fill:url(#SVGID_38_);}
	.st39{fill:url(#SVGID_39_);}
	.st40{fill:url(#SVGID_40_);}
	.st41{fill:url(#SVGID_41_);}
	.st42{fill:url(#SVGID_42_);}
	.st43{fill:url(#SVGID_43_);}
	.st44{opacity:0.4;fill:url(#SVGID_44_);}
	.st45{fill:url(#SVGID_45_);}
	.st46{fill:url(#SVGID_46_);}
	.st47{fill:url(#SVGID_47_);}
	.st48{opacity:0.4;fill:url(#SVGID_48_);}
	.st49{opacity:0.2;fill:url(#SVGID_49_);}
	.st50{fill:url(#SVGID_50_);}
	.st51{fill:url(#SVGID_51_);}
	.st52{fill:url(#SVGID_52_);}
	.st53{fill:url(#SVGID_53_);}
	.st54{fill:url(#SVGID_54_);}
	.st55{fill:url(#SVGID_55_);}
	.st56{fill:url(#SVGID_56_);}
	.st57{fill:url(#SVGID_57_);}
	.st58{fill:url(#SVGID_58_);}
	.st59{fill:url(#SVGID_59_);}
	.st60{fill:url(#SVGID_60_);}
	.st61{fill:url(#SVGID_61_);}
	.st62{fill:url(#SVGID_62_);}
	.st63{opacity:0.4;fill:url(#SVGID_63_);}
	.st64{fill:url(#SVGID_64_);}
	.st65{fill:url(#SVGID_65_);}
	.st66{fill:url(#SVGID_66_);}
	.st67{opacity:0.4;fill:url(#SVGID_67_);}
	.st68{opacity:0.2;fill:url(#SVGID_68_);}
	.st69{fill:url(#SVGID_69_);}
	.st70{fill:url(#SVGID_70_);}
	.st71{fill:url(#SVGID_71_);}
	.st72{fill:url(#SVGID_72_);}
	.st73{opacity:0.4;fill:url(#SVGID_73_);}
	.st74{fill:url(#SVGID_74_);}
	.st75{fill:url(#SVGID_75_);}
	.st76{fill:url(#SVGID_76_);}
	.st77{opacity:0.4;fill:url(#SVGID_77_);}
	.st78{opacity:0.2;fill:url(#SVGID_78_);}
	.st79{fill:url(#SVGID_79_);}
	.st80{fill:url(#SVGID_80_);}
	.st81{fill:url(#SVGID_81_);}
	.st82{opacity:0.4;fill:url(#SVGID_82_);}
	.st83{fill:url(#SVGID_83_);}
	.st84{fill:url(#SVGID_84_);}
	.st85{fill:url(#SVGID_85_);}
	.st86{opacity:0.4;fill:url(#SVGID_86_);}
	.st87{opacity:0.2;fill:url(#SVGID_87_);}
	.st88{fill:url(#SVGID_88_);}
	.st89{fill:url(#SVGID_89_);}
	.st90{fill:url(#SVGID_90_);}
	.st91{opacity:0.4;fill:url(#SVGID_91_);}
	.st92{opacity:0.2;fill:url(#SVGID_92_);}
	.st93{fill:url(#SVGID_101_);}
	.st94{fill:url(#SVGID_102_);}
	.st95{opacity:0.4;fill:url(#SVGID_103_);}
	.st96{fill:url(#SVGID_104_);}
	.st97{fill:url(#SVGID_105_);}
	.st98{fill:url(#SVGID_106_);}
	.st99{opacity:0.4;fill:url(#SVGID_107_);}
	.st100{opacity:0.2;fill:url(#SVGID_108_);}
	.st101{fill:url(#SVGID_109_);}
	.st102{fill:url(#SVGID_110_);}
	.st103{fill:url(#SVGID_111_);}
	.st104{opacity:0.4;fill:url(#SVGID_112_);}
	.st105{opacity:0.2;fill:url(#SVGID_113_);}
	.st106{fill:url(#SVGID_122_);}
	.st107{fill:url(#SVGID_123_);}
	.st108{fill:url(#SVGID_124_);}
	.st109{opacity:0.4;fill:url(#SVGID_125_);}
	.st110{fill:url(#SVGID_126_);}
	.st111{fill:url(#SVGID_127_);}
	.st112{fill:url(#SVGID_128_);}
	.st113{opacity:0.4;fill:url(#SVGID_129_);}
	.st114{opacity:0.2;fill:url(#SVGID_130_);}
	.st115{fill:url(#SVGID_131_);}
	.st116{fill:url(#SVGID_132_);}
	.st117{fill:url(#SVGID_133_);}
	.st118{opacity:0.4;fill:url(#SVGID_134_);}
	.st119{opacity:0.2;fill:url(#SVGID_135_);}
	.st120{fill:url(#SVGID_136_);}
	.st121{fill:url(#SVGID_137_);}
	.st122{fill:url(#SVGID_138_);}
	.st123{opacity:0.4;fill:url(#SVGID_139_);}
	.st124{fill:url(#SVGID_140_);}
	.st125{fill:url(#SVGID_141_);}
	.st126{fill:url(#SVGID_142_);}
	.st127{opacity:0.4;fill:url(#SVGID_143_);}
	.st128{opacity:0.2;fill:url(#SVGID_144_);}
	.st129{fill:url(#SVGID_145_);}
	.st130{fill:url(#SVGID_146_);}
	.st131{fill:url(#SVGID_147_);}
	.st132{opacity:0.4;fill:url(#SVGID_148_);}
	.st133{opacity:0.2;fill:url(#SVGID_149_);}
	.st134{fill:url(#SVGID_150_);}
</style>
<g id="Layer_1">
</g>
<g id="Layer_2">
</g>
<g id="Layer_3">
</g>
<g id="Layer_4">
</g>
<g id="Layer_5">
</g>
<g id="Layer_6">
	<g>
		<g>
			
				<radialGradient id="SVGID_1_" cx="8441.4775" cy="435.6971" r="864.2512" gradientTransform="matrix(-1 0 0 1 9905.6729 0)" gradientUnits="userSpaceOnUse">
				<stop  offset="0" style="stop-color:#F8F8F8"/>
				<stop  offset="0.1559" style="stop-color:#EDE9F1"/>
				<stop  offset="1" style="stop-color:#9B9DA2"/>
			</radialGradient>
			<path class="st0" d="M904.8,721.15c0,251.43,203.84,455.24,455.27,455.24s455.27-203.81,455.27-455.24
				s-203.85-455.27-455.27-455.27S904.8,469.72,904.8,721.15z"/>
			<g>
				<path class="st5" d="M1041.96,801.7c42.78-3.85,73.34-52.39,68.3-108.41c-5-56.01-43.77-98.3-86.58-94.45
					c-42.75,3.85-73.34,52.39-68.3,108.38C960.42,763.24,999.18,805.52,1041.96,801.7z"/>
				<path class="st5" d="M1004.88,842.41c-25.65,13.47-32.11,51.6-14.49,85.13c17.62,33.56,52.66,49.83,78.31,36.39
					c25.59-13.43,32.07-51.57,14.46-85.09C1065.57,845.27,1030.5,828.97,1004.88,842.41z"/>
				<path class="st5" d="M1106.4,801.97c-15.15,7.97-18.97,30.46-8.56,50.29c10.41,19.82,31.12,29.44,46.27,21.5
					c15.12-7.94,18.94-30.46,8.56-50.29C1142.27,803.65,1121.55,794.03,1106.4,801.97z"/>
				<path class="st5" d="M1780.57,737.62c-7.87-55.69-48.71-95.96-91.25-89.97c-42.51,5.99-70.6,56.02-62.73,111.7
					c7.84,55.69,48.7,95.96,91.22,89.94C1760.32,843.29,1788.44,793.27,1780.57,737.62z"/>
				<path class="st5" d="M1724.33,605.1c24.89-14.75,29.44-53.15,10.14-85.75c-19.27-32.6-55.09-47.09-80.02-32.37
					c-24.9,14.69-29.44,53.12-10.14,85.72C1663.57,605.33,1699.4,619.82,1724.33,605.1z"/>
				<path class="st5" d="M1630.93,599.97c-11.39-19.27-32.54-27.83-47.29-19.13c-14.69,8.69-17.39,31.38-5.99,50.65
					c11.39,19.3,32.57,27.83,47.29,19.13C1639.66,641.92,1642.36,619.23,1630.93,599.97z"/>
			</g>
			<g>
				
					<radialGradient id="SVGID_2_" cx="7387.4297" cy="569.8631" r="129.7303" gradientTransform="matrix(-0.8392 1.1536 -1.6186 -1.3126 8660.2285 -7249.4912)" gradientUnits="userSpaceOnUse">
					<stop  offset="0" style="stop-color:#FFFFFF"/>
					<stop  offset="1" style="stop-color:#FFFFFF;stop-opacity:0"/>
				</radialGradient>
				<path class="st1" d="M1429.46,674.32c-115.92-94.12-161.26-237.3-101.13-319.93c60.13-82.66,202.89-73.4,318.91,20.62
					c115.92,94.05,161.13,237.34,101.07,319.89C1688.1,777.66,1545.38,768.34,1429.46,674.32z"/>
				
					<radialGradient id="SVGID_3_" cx="4616.6646" cy="-5.2728" r="125.1913" gradientTransform="matrix(-1.1717 -1.1007 0.222 -0.7283 6514.8911 6037.2935)" gradientUnits="userSpaceOnUse">
					<stop  offset="0" style="stop-color:#FFFFFF"/>
					<stop  offset="1" style="stop-color:#FFFFFF;stop-opacity:0"/>
				</radialGradient>
				<path style="opacity:0.4;fill:url(#SVGID_3_);" d="M957.69,821.76c15.38-50.35,93.43-29.47,174.47,46.63
					c81.01,76.1,134.23,178.59,118.91,228.97c-15.31,50.32-93.39,29.51-174.47-46.6C995.62,974.66,942.41,872.08,957.69,821.76z"/>
			</g>
		</g>
		<g>
			
				<radialGradient id="SVGID_4_" cx="1164.4822" cy="694.4628" r="1254.4392" gradientTransform="matrix(-1 0 0 -0.7305 2328.9644 1201.7595)" gradientUnits="userSpaceOnUse">
				<stop  offset="0" style="stop-color:#FFFFFF"/>
				<stop  offset="0.198" style="stop-color:#D5F3FF"/>
				<stop  offset="1" style="stop-color:#85BCF1"/>
			</radialGradient>
			<path style="fill:url(#SVGID_4_);" d="M1438.14,897.46c-17.12-250.81-225.89-448.99-481.03-448.99
				c-255.17,0-463.9,198.18-481.03,448.99c-190.06,9.41-341.28,166.48-341.28,358.84c0,198.46,160.88,359.33,359.31,359.33h926.01
				c198.43,0,359.31-160.87,359.31-359.33C1779.42,1063.94,1628.17,906.87,1438.14,897.46z"/>
			<radialGradient id="SVGID_5_" cx="1342.2358" cy="799.6573" r="1066.4124" gradientUnits="userSpaceOnUse">
				<stop  offset="0" style="stop-color:#D6D4DB"/>
				<stop  offset="0.0422" style="stop-color:#D2D0D7;stop-opacity:0.9452"/>
				<stop  offset="0.2911" style="stop-color:#BDBDC2;stop-opacity:0.6213"/>
				<stop  offset="0.5357" style="stop-color:#B0B1B6;stop-opacity:0.3032"/>
				<stop  offset="0.7688" style="stop-color:#ACADB2;stop-opacity:0"/>
			</radialGradient>
			<path class="st4" d="M1438.14,897.46c-17.12-250.81-225.89-448.99-481.03-448.99c-255.17,0-463.9,198.18-481.03,448.99
				c-190.06,9.41-341.28,166.48-341.28,358.84c0,198.46,160.88,359.33,359.31,359.33h926.01c198.43,0,359.31-160.87,359.31-359.33
				C1779.42,1063.94,1628.17,906.87,1438.14,897.46z"/>
			
				<radialGradient id="SVGID_6_" cx="7720.6831" cy="677.6778" r="151.3423" gradientTransform="matrix(-0.8392 1.1536 -1.6186 -1.3126 8660.2285 -7249.4912)" gradientUnits="userSpaceOnUse">
				<stop  offset="0" style="stop-color:#FFFFFF"/>
				<stop  offset="1" style="stop-color:#FFFFFF;stop-opacity:0"/>
			</radialGradient>
			<path class="st6" d="M957.14,942.17c-135.25-109.74-188.1-276.82-117.97-373.21c70.16-96.46,236.7-85.61,372,24.03
				c135.24,109.74,187.98,276.89,117.92,373.24C1258.89,1062.69,1092.37,1051.84,957.14,942.17z"/>
			
				<radialGradient id="SVGID_7_" cx="7716.1411" cy="398.1114" r="118.9391" gradientTransform="matrix(-0.8392 1.1536 -1.6186 -1.3126 8660.2285 -7249.4912)" gradientUnits="userSpaceOnUse">
				<stop  offset="0" style="stop-color:#FFFFFF"/>
				<stop  offset="1" style="stop-color:#FFFFFF;stop-opacity:0"/>
			</radialGradient>
			<path class="st7" d="M1440.66,1266.52c-106.29-86.27-147.81-217.57-92.71-293.35c55.13-75.78,186.01-67.23,292.36,18.94
				c106.28,86.2,147.74,217.57,92.67,293.28C1677.8,1361.2,1546.94,1352.69,1440.66,1266.52z"/>
			
				<radialGradient id="SVGID_8_" cx="330.0419" cy="1368.4749" r="86.9735" gradientTransform="matrix(0.901 -0.4338 1.2628 2.6229 -1695.3936 -2077.7556)" gradientUnits="userSpaceOnUse">
				<stop  offset="0" style="stop-color:#FFFFFF"/>
				<stop  offset="1" style="stop-color:#FFFFFF;stop-opacity:0"/>
			</radialGradient>
			<path style="opacity:0.2;fill:url(#SVGID_8_);" d="M391.69,1278.55c-78.45-122.37-169.55-181.27-203.68-131.64
				c-33.98,49.59,1.95,189.08,80.35,311.48c78.48,122.37,169.66,181.3,203.69,131.65C506.06,1540.3,470.14,1400.95,391.69,1278.55z"
				/>
		</g>
	</g>
	<g>
		<g>
			
				<radialGradient id="SVGID_9_" cx="1209.7748" cy="3858.9661" r="147.2404" gradientTransform="matrix(0.866 0.5 -0.5 0.866 1384.6688 -2160.1985)" gradientUnits="userSpaceOnUse">
				<stop  offset="0" style="stop-color:#D0F2FF"/>
				<stop  offset="0.198" style="stop-color:#D5F3FF"/>
				<stop  offset="1" style="stop-color:#85BCF1"/>
			</radialGradient>
			<path class="st9" d="M584.77,1800.49c-16.9,29.28-54.33,39.31-83.61,22.39c-29.27-16.89-39.3-54.31-22.4-83.59
				c16.9-29.28,121.42-87.92,121.42-87.92S601.67,1771.21,584.77,1800.49z"/>
			
				<radialGradient id="SVGID_10_" cx="9343.1387" cy="-242.3055" r="23.0658" gradientTransform="matrix(-1.3036 0.5794 -0.7454 -1.946 12509.7236 -4107.9702)" gradientUnits="userSpaceOnUse">
				<stop  offset="0" style="stop-color:#FFFFFF"/>
				<stop  offset="1" style="stop-color:#FFFFFF;stop-opacity:0"/>
			</radialGradient>
			<path class="st10" d="M480.56,1790.34c-9.49-24.8-3.74-50.85,12.88-58.27c16.6-7.39,37.76,6.74,47.26,31.55
				c9.49,24.77,3.71,50.88-12.88,58.24C511.21,1829.25,490.05,1815.11,480.56,1790.34z"/>
		</g>
		<g>
			
				<radialGradient id="SVGID_11_" cx="1431.4264" cy="3730.9895" r="147.247" gradientTransform="matrix(0.866 0.5 -0.5 0.866 1384.6688 -2160.1985)" gradientUnits="userSpaceOnUse">
				<stop  offset="0" style="stop-color:#D0F2FF"/>
				<stop  offset="0.198" style="stop-color:#D5F3FF"/>
				<stop  offset="1" style="stop-color:#85BCF1"/>
			</radialGradient>
			<path style="fill:url(#SVGID_11_);" d="M840.72,1800.49c-16.9,29.28-54.33,39.31-83.61,22.39c-29.27-16.89-39.3-54.31-22.4-83.59
				c16.9-29.28,121.42-87.92,121.42-87.92S857.61,1771.21,840.72,1800.49z"/>
			
				<radialGradient id="SVGID_12_" cx="9175.3721" cy="-292.2571" r="23.0659" gradientTransform="matrix(-1.3036 0.5794 -0.7454 -1.946 12509.7236 -4107.9702)" gradientUnits="userSpaceOnUse">
				<stop  offset="0" style="stop-color:#FFFFFF"/>
				<stop  offset="1" style="stop-color:#FFFFFF;stop-opacity:0"/>
			</radialGradient>
			<path class="st12" d="M736.49,1790.34c-9.48-24.8-3.73-50.85,12.88-58.27c16.6-7.39,37.76,6.74,47.25,31.55
				c9.5,24.77,3.72,50.88-12.87,58.24C767.14,1829.25,745.99,1815.11,736.49,1790.34z"/>
		</g>
		<g>
			
				<radialGradient id="SVGID_13_" cx="1653.0847" cy="3603.0134" r="147.2405" gradientTransform="matrix(0.866 0.5 -0.5 0.866 1384.6688 -2160.1985)" gradientUnits="userSpaceOnUse">
				<stop  offset="0" style="stop-color:#D0F2FF"/>
				<stop  offset="0.198" style="stop-color:#D5F3FF"/>
				<stop  offset="1" style="stop-color:#85BCF1"/>
			</radialGradient>
			<path class="st13" d="M1096.66,1800.49c-16.9,29.28-54.33,39.31-83.61,22.39c-29.27-16.89-39.29-54.31-22.4-83.59
				c16.9-29.28,121.42-87.92,121.42-87.92S1113.56,1771.21,1096.66,1800.49z"/>
			
				<radialGradient id="SVGID_14_" cx="9007.5947" cy="-342.2108" r="23.0659" gradientTransform="matrix(-1.3036 0.5794 -0.7454 -1.946 12509.7236 -4107.9702)" gradientUnits="userSpaceOnUse">
				<stop  offset="0" style="stop-color:#FFFFFF"/>
				<stop  offset="1" style="stop-color:#FFFFFF;stop-opacity:0"/>
			</radialGradient>
			<path class="st14" d="M992.44,1790.34c-9.49-24.8-3.74-50.85,12.88-58.27c16.6-7.39,37.76,6.74,47.25,31.55
				c9.49,24.77,3.72,50.88-12.87,58.24C1023.09,1829.25,1001.93,1815.11,992.44,1790.34z"/>
		</g>
		<g>
			
				<radialGradient id="SVGID_15_" cx="1874.7404" cy="3475.0366" r="147.2405" gradientTransform="matrix(0.866 0.5 -0.5 0.866 1384.6688 -2160.1985)" gradientUnits="userSpaceOnUse">
				<stop  offset="0" style="stop-color:#D0F2FF"/>
				<stop  offset="0.198" style="stop-color:#D5F3FF"/>
				<stop  offset="1" style="stop-color:#85BCF1"/>
			</radialGradient>
			<path style="fill:url(#SVGID_15_);" d="M1352.6,1800.49c-16.9,29.28-54.33,39.31-83.61,22.39
				c-29.27-16.89-39.29-54.31-22.4-83.59c16.9-29.28,121.42-87.92,121.42-87.92S1369.5,1771.21,1352.6,1800.49z"/>
			
				<radialGradient id="SVGID_16_" cx="8839.8262" cy="-392.1622" r="23.0669" gradientTransform="matrix(-1.3036 0.5794 -0.7454 -1.946 12509.7236 -4107.9702)" gradientUnits="userSpaceOnUse">
				<stop  offset="0" style="stop-color:#FFFFFF"/>
				<stop  offset="1" style="stop-color:#FFFFFF;stop-opacity:0"/>
			</radialGradient>
			<path style="fill:url(#SVGID_16_);" d="M1248.38,1790.34c-9.48-24.8-3.73-50.85,12.89-58.27c16.6-7.39,37.75,6.74,47.25,31.55
				c9.49,24.77,3.71,50.88-12.88,58.24C1279.02,1829.25,1257.87,1815.11,1248.38,1790.34z"/>
		</g>
	</g>
</g>
<g id="Layer_7">
</g>
<g id="Layer_8">
</g>
<g id="Layer_9">
</g>
<g id="Layer_10">
</g>
<g id="Layer_9_copy">
</g>
<g id="Layer_10_copy">
</g>
</svg>
