<?xml version="1.0" encoding="utf-8"?>
<!-- Generator: Adobe Illustrator 25.2.0, SVG Export Plug-In . SVG Version: 6.00 Build 0)  -->
<svg version="1.1" xmlns="http://www.w3.org/2000/svg" xmlns:xlink="http://www.w3.org/1999/xlink" x="0px" y="0px"
	 viewBox="0 0 2000 2000" style="enable-background:new 0 0 2000 2000;" xml:space="preserve">
<style type="text/css">
	.st0{fill:url(#SVGID_1_);}
	.st1{fill:url(#SVGID_2_);}
	.st2{fill:url(#SVGID_3_);}
	.st3{opacity:0.4;fill:url(#SVGID_4_);}
	.st4{fill:url(#SVGID_5_);}
	.st5{fill:#ACADB2;}
	.st6{fill:url(#SVGID_6_);}
	.st7{opacity:0.4;fill:url(#SVGID_7_);}
	.st8{fill:url(#SVGID_8_);}
	.st9{fill:url(#SVGID_9_);}
	.st10{fill:url(#SVGID_10_);}
	.st11{opacity:0.4;fill:url(#SVGID_11_);}
	.st12{fill:url(#SVGID_12_);}
	.st13{fill:url(#SVGID_13_);}
	.st14{fill:url(#SVGID_14_);}
	.st15{opacity:0.4;fill:url(#SVGID_15_);}
	.st16{opacity:0.2;fill:url(#SVGID_16_);}
	.st17{fill:url(#SVGID_17_);}
	.st18{fill:url(#SVGID_18_);}
	.st19{opacity:0.4;fill:url(#SVGID_19_);}
	.st20{fill:url(#SVGID_20_);}
	.st21{fill:url(#SVGID_21_);}
	.st22{fill:url(#SVGID_22_);}
	.st23{opacity:0.4;fill:url(#SVGID_23_);}
	.st24{opacity:0.2;fill:url(#SVGID_24_);}
	.st25{fill:url(#SVGID_25_);}
	.st26{fill:url(#SVGID_26_);}
	.st27{fill:url(#SVGID_27_);}
	.st28{opacity:0.4;fill:url(#SVGID_28_);}
	.st29{fill:url(#SVGID_29_);}
	.st30{fill:url(#SVGID_30_);}
	.st31{fill:url(#SVGID_31_);}
	.st32{opacity:0.4;fill:url(#SVGID_32_);}
	.st33{opacity:0.2;fill:url(#SVGID_33_);}
	.st34{fill:url(#SVGID_34_);}
	.st35{fill:url(#SVGID_35_);}
	.st36{fill:url(#SVGID_36_);}
	.st37{fill:url(#SVGID_37_);}
	.st38{fill:url(#SVGID_38_);}
	.st39{fill:url(#SVGID_39_);}
	.st40{fill:url(#SVGID_40_);}
	.st41{fill:url(#SVGID_41_);}
	.st42{fill:url(#SVGID_42_);}
	.st43{fill:url(#SVGID_43_);}
	.st44{opacity:0.4;fill:url(#SVGID_44_);}
	.st45{fill:url(#SVGID_45_);}
	.st46{fill:url(#SVGID_46_);}
	.st47{fill:url(#SVGID_47_);}
	.st48{opacity:0.4;fill:url(#SVGID_48_);}
	.st49{opacity:0.2;fill:url(#SVGID_49_);}
	.st50{fill:url(#SVGID_50_);}
	.st51{fill:url(#SVGID_51_);}
	.st52{fill:url(#SVGID_52_);}
	.st53{fill:url(#SVGID_53_);}
	.st54{fill:url(#SVGID_54_);}
	.st55{fill:url(#SVGID_55_);}
	.st56{fill:url(#SVGID_56_);}
	.st57{fill:url(#SVGID_57_);}
	.st58{fill:url(#SVGID_58_);}
	.st59{fill:url(#SVGID_59_);}
	.st60{fill:url(#SVGID_60_);}
	.st61{fill:url(#SVGID_61_);}
	.st62{fill:url(#SVGID_62_);}
	.st63{opacity:0.4;fill:url(#SVGID_63_);}
	.st64{fill:url(#SVGID_64_);}
	.st65{fill:url(#SVGID_65_);}
	.st66{fill:url(#SVGID_66_);}
	.st67{opacity:0.4;fill:url(#SVGID_67_);}
	.st68{opacity:0.2;fill:url(#SVGID_68_);}
	.st69{fill:url(#SVGID_69_);}
	.st70{fill:url(#SVGID_70_);}
	.st71{fill:url(#SVGID_71_);}
	.st72{fill:url(#SVGID_72_);}
	.st73{opacity:0.4;fill:url(#SVGID_73_);}
	.st74{fill:url(#SVGID_74_);}
	.st75{fill:url(#SVGID_75_);}
	.st76{fill:url(#SVGID_76_);}
	.st77{opacity:0.4;fill:url(#SVGID_77_);}
	.st78{opacity:0.2;fill:url(#SVGID_78_);}
	.st79{fill:url(#SVGID_79_);}
	.st80{fill:url(#SVGID_80_);}
	.st81{fill:url(#SVGID_81_);}
	.st82{opacity:0.4;fill:url(#SVGID_82_);}
	.st83{fill:url(#SVGID_83_);}
	.st84{fill:url(#SVGID_84_);}
	.st85{fill:url(#SVGID_85_);}
	.st86{opacity:0.4;fill:url(#SVGID_86_);}
	.st87{opacity:0.2;fill:url(#SVGID_87_);}
	.st88{fill:url(#SVGID_88_);}
	.st89{fill:url(#SVGID_89_);}
	.st90{fill:url(#SVGID_90_);}
	.st91{opacity:0.4;fill:url(#SVGID_91_);}
	.st92{opacity:0.2;fill:url(#SVGID_92_);}
	.st93{fill:url(#SVGID_101_);}
	.st94{fill:url(#SVGID_102_);}
	.st95{opacity:0.4;fill:url(#SVGID_103_);}
	.st96{fill:url(#SVGID_104_);}
	.st97{fill:url(#SVGID_105_);}
	.st98{fill:url(#SVGID_106_);}
	.st99{opacity:0.4;fill:url(#SVGID_107_);}
	.st100{opacity:0.2;fill:url(#SVGID_108_);}
	.st101{fill:url(#SVGID_109_);}
	.st102{fill:url(#SVGID_110_);}
	.st103{fill:url(#SVGID_111_);}
	.st104{opacity:0.4;fill:url(#SVGID_112_);}
	.st105{opacity:0.2;fill:url(#SVGID_113_);}
	.st106{fill:url(#SVGID_122_);}
	.st107{fill:url(#SVGID_123_);}
	.st108{fill:url(#SVGID_124_);}
	.st109{opacity:0.4;fill:url(#SVGID_125_);}
	.st110{fill:url(#SVGID_126_);}
	.st111{fill:url(#SVGID_127_);}
	.st112{fill:url(#SVGID_128_);}
	.st113{opacity:0.4;fill:url(#SVGID_129_);}
	.st114{opacity:0.2;fill:url(#SVGID_130_);}
	.st115{fill:url(#SVGID_131_);}
	.st116{fill:url(#SVGID_132_);}
	.st117{fill:url(#SVGID_133_);}
	.st118{opacity:0.4;fill:url(#SVGID_134_);}
	.st119{opacity:0.2;fill:url(#SVGID_135_);}
	.st120{fill:url(#SVGID_136_);}
	.st121{fill:url(#SVGID_137_);}
	.st122{fill:url(#SVGID_138_);}
	.st123{opacity:0.4;fill:url(#SVGID_139_);}
	.st124{fill:url(#SVGID_140_);}
	.st125{fill:url(#SVGID_141_);}
	.st126{fill:url(#SVGID_142_);}
	.st127{opacity:0.4;fill:url(#SVGID_143_);}
	.st128{opacity:0.2;fill:url(#SVGID_144_);}
	.st129{fill:url(#SVGID_145_);}
	.st130{fill:url(#SVGID_146_);}
	.st131{fill:url(#SVGID_147_);}
	.st132{opacity:0.4;fill:url(#SVGID_148_);}
	.st133{opacity:0.2;fill:url(#SVGID_149_);}
	.st134{fill:url(#SVGID_150_);}
</style>
<g id="Layer_1">
</g>
<g id="Layer_2">
</g>
<g id="Layer_3">
</g>
<g id="Layer_4">
</g>
<g id="Layer_5">
</g>
<g id="Layer_6">
</g>
<g id="Layer_7">
</g>
<g id="Layer_8">
</g>
<g id="Layer_9">
</g>
<g id="Layer_10">
</g>
<g id="Layer_9_copy">
</g>
<g id="Layer_10_copy">
	<g>
		
			<radialGradient id="SVGID_1_" cx="4740.7617" cy="426.1637" r="959.3307" gradientTransform="matrix(-1 0 0 1 5865.6729 0)" gradientUnits="userSpaceOnUse">
			<stop  offset="0" style="stop-color:#F8F8F8"/>
			<stop  offset="0.1559" style="stop-color:#EDE9F1"/>
			<stop  offset="1" style="stop-color:#9B9DA2"/>
		</radialGradient>
		<path class="st0" d="M503.97,743.02c0,279.09,226.27,505.32,505.36,505.32s505.36-226.23,505.36-505.32
			s-226.27-505.36-505.36-505.36S503.97,463.93,503.97,743.02z"/>
		<g>
			<path class="st5" d="M656.22,832.43c47.49-4.28,81.41-58.16,75.81-120.34c-5.55-62.18-48.58-109.11-96.1-104.84
				c-47.45,4.28-81.41,58.16-75.81,120.3C565.71,789.74,608.74,836.68,656.22,832.43z"/>
			<path class="st5" d="M615.06,877.62c-28.48,14.95-35.64,57.28-16.08,94.49c19.56,37.25,58.45,55.31,86.93,40.39
				c28.4-14.91,35.6-57.24,16.05-94.45C682.43,880.8,643.5,862.7,615.06,877.62z"/>
			<path class="st5" d="M727.76,832.73c-16.81,8.85-21.06,33.81-9.5,55.82c11.55,22.01,34.54,32.68,51.36,23.87
				c16.78-8.81,21.02-33.81,9.51-55.82C767.57,834.59,744.57,823.92,727.76,832.73z"/>
			<path class="st5" d="M1476.09,761.3c-8.74-61.81-54.06-106.52-101.29-99.87c-47.19,6.65-78.37,62.18-69.64,123.99
				c8.7,61.81,54.06,106.52,101.25,99.83C1453.61,878.6,1484.83,823.08,1476.09,761.3z"/>
			<path class="st5" d="M1413.66,614.21c27.63-16.38,32.68-59,11.26-95.19c-21.38-36.19-61.16-52.27-88.83-35.93
				c-27.63,16.3-32.68,58.96-11.26,95.15C1346.22,614.46,1385.99,630.55,1413.66,614.21z"/>
			<path class="st5" d="M1309.99,608.51c-12.65-21.38-36.12-30.89-52.49-21.24c-16.3,9.65-19.3,34.84-6.65,56.22
				c12.65,21.42,36.15,30.89,52.49,21.24C1319.68,655.08,1322.68,629.89,1309.99,608.51z"/>
		</g>
		<g>
			
				<radialGradient id="SVGID_2_" cx="5722.1812" cy="-2677.4802" r="144.0025" gradientTransform="matrix(-0.8392 1.1536 -1.6186 -1.3126 1675.4727 -9590.6709)" gradientUnits="userSpaceOnUse">
				<stop  offset="0" style="stop-color:#FFFFFF"/>
				<stop  offset="1" style="stop-color:#FFFFFF;stop-opacity:0"/>
			</radialGradient>
			<path class="st1" d="M1086.35,691.04C957.68,586.57,907.35,427.63,974.1,335.92c66.75-91.75,225.21-81.48,353.99,22.88
				c128.67,104.4,178.86,263.45,112.18,355.09C1373.45,805.75,1215.02,795.41,1086.35,691.04z"/>
			
				<radialGradient id="SVGID_3_" cx="1089.5613" cy="-2587.1724" r="138.9641" gradientTransform="matrix(-1.1717 -1.1007 0.222 -0.7283 2576.4968 322.7137)" gradientUnits="userSpaceOnUse">
				<stop  offset="0" style="stop-color:#FFFFFF"/>
				<stop  offset="1" style="stop-color:#FFFFFF;stop-opacity:0"/>
			</radialGradient>
			<path style="opacity:0.4;fill:url(#SVGID_3_);" d="M562.68,854.7c17.07-55.89,103.7-32.72,193.66,51.76
				c89.92,84.48,148.99,198.23,132,254.16c-17,55.86-103.67,32.75-193.66-51.72C604.79,1024.42,545.72,910.55,562.68,854.7z"/>
		</g>
	</g>
	<g>
		
			<radialGradient id="SVGID_4_" cx="669.4087" cy="961.5524" r="585.7761" gradientTransform="matrix(-1 0 0 -0.7305 1338.8174 1663.9548)" gradientUnits="userSpaceOnUse">
			<stop  offset="0" style="stop-color:#FFFFFF"/>
			<stop  offset="0.198" style="stop-color:#D5F3FF"/>
			<stop  offset="1" style="stop-color:#85BCF1"/>
		</radialGradient>
		<path style="fill:url(#SVGID_4_);" d="M797.19,1056.34c-8-117.12-105.48-209.66-224.63-209.66
			c-119.14,0-216.62,92.53-224.62,209.66c-88.74,4.39-159.36,77.74-159.36,167.56c0,92.69,75.13,167.8,167.79,167.8h432.41
			c92.66,0,167.79-75.12,167.79-167.8C956.56,1134.08,885.94,1060.72,797.19,1056.34z"/>
		<radialGradient id="SVGID_5_" cx="802.3001" cy="1037.9926" r="665.955" gradientUnits="userSpaceOnUse">
			<stop  offset="0" style="stop-color:#D2D0D7"/>
			<stop  offset="0.1564" style="stop-color:#C9C7CE;stop-opacity:0.7966"/>
			<stop  offset="0.4696" style="stop-color:#BCBCC1;stop-opacity:0.3891"/>
			<stop  offset="0.7688" style="stop-color:#B8B8BD;stop-opacity:0"/>
		</radialGradient>
		<path class="st4" d="M797.19,1056.34c-8-117.12-105.48-209.66-224.63-209.66c-119.14,0-216.62,92.53-224.62,209.66
			c-88.74,4.39-159.36,77.74-159.36,167.56c0,92.69,75.13,167.8,167.79,167.8h432.41c92.66,0,167.79-75.12,167.79-167.8
			C956.56,1134.08,885.94,1060.72,797.19,1056.34z"/>
		
			<radialGradient id="SVGID_6_" cx="6233.2251" cy="-2587.0122" r="70.6713" gradientTransform="matrix(-0.8392 1.1536 -1.6186 -1.3126 1675.4727 -9590.6709)" gradientUnits="userSpaceOnUse">
			<stop  offset="0" style="stop-color:#FFFFFF"/>
			<stop  offset="1" style="stop-color:#FFFFFF;stop-opacity:0"/>
		</radialGradient>
		<path class="st6" d="M572.58,1077.22c-63.16-51.24-87.84-129.26-55.09-174.29c32.75-45.03,110.53-39.94,173.7,11.24
			c63.16,51.24,87.79,129.29,55.07,174.29C713.5,1133.49,635.73,1128.43,572.58,1077.22z"/>
		
			<radialGradient id="SVGID_7_" cx="6231.1011" cy="-2717.5603" r="55.5415" gradientTransform="matrix(-0.8392 1.1536 -1.6186 -1.3126 1675.4727 -9590.6709)" gradientUnits="userSpaceOnUse">
			<stop  offset="0" style="stop-color:#FFFFFF"/>
			<stop  offset="1" style="stop-color:#FFFFFF;stop-opacity:0"/>
		</radialGradient>
		<path class="st7" d="M798.38,1228.68c-49.63-40.28-69.01-101.58-43.3-136.98c25.74-35.4,86.87-31.41,136.53,8.83
			c49.62,40.28,68.98,101.62,43.27,136.95C909.1,1272.88,848.01,1268.93,798.38,1228.68z"/>
		
			<radialGradient id="SVGID_8_" cx="279.7537" cy="1276.2854" r="40.6144" gradientTransform="matrix(0.901 -0.4338 1.2628 2.6229 -1583.9575 -1949.9537)" gradientUnits="userSpaceOnUse">
			<stop  offset="0" style="stop-color:#FFFFFF"/>
			<stop  offset="1" style="stop-color:#FFFFFF;stop-opacity:0"/>
		</radialGradient>
		<path style="opacity:0.2;fill:url(#SVGID_8_);" d="M308.54,1234.31c-36.63-57.14-79.18-84.66-95.11-61.49
			c-15.86,23.16,0.93,88.3,37.53,145.44c36.65,57.14,79.22,84.69,95.11,61.49C361.96,1356.52,345.17,1291.44,308.54,1234.31z"/>
	</g>
	<g>
		
			<radialGradient id="SVGID_9_" cx="1654.731" cy="510.6613" r="453.5536" gradientTransform="matrix(-1 0 0 -0.7305 3309.4619 883.6932)" gradientUnits="userSpaceOnUse">
			<stop  offset="0" style="stop-color:#FFFFFF"/>
			<stop  offset="0.198" style="stop-color:#D5F3FF"/>
			<stop  offset="1" style="stop-color:#85BCF1"/>
		</radialGradient>
		<path class="st9" d="M1753.67,584.06c-6.19-90.68-81.68-162.34-173.92-162.34c-92.26,0-167.73,71.66-173.92,162.34
			c-68.71,3.4-123.39,60.2-123.39,129.72c0,71.75,58.17,129.94,129.91,129.94h334.81c71.75,0,129.91-58.19,129.91-129.94
			C1877.06,644.26,1822.38,587.46,1753.67,584.06z"/>
		<radialGradient id="SVGID_10_" cx="1358.4211" cy="666.4011" r="606.095" gradientUnits="userSpaceOnUse">
			<stop  offset="0" style="stop-color:#DAD8DF"/>
			<stop  offset="0.2099" style="stop-color:#CCCBD1;stop-opacity:0.727"/>
			<stop  offset="0.4958" style="stop-color:#BFC0C4;stop-opacity:0.3551"/>
			<stop  offset="0.7688" style="stop-color:#BBBCC0;stop-opacity:0"/>
		</radialGradient>
		<path class="st10" d="M1753.67,584.06c-6.19-90.68-81.68-162.34-173.92-162.34c-92.26,0-167.73,71.66-173.92,162.34
			c-68.71,3.4-123.39,60.2-123.39,129.72c0,71.75,58.17,129.94,129.91,129.94h334.81c71.75,0,129.91-58.19,129.91-129.94
			C1877.06,644.26,1822.38,587.46,1753.67,584.06z"/>
		
			<radialGradient id="SVGID_11_" cx="5543.7852" cy="-2843.5491" r="54.7239" gradientTransform="matrix(-0.8392 1.1536 -1.6186 -1.3126 1675.4727 -9590.6709)" gradientUnits="userSpaceOnUse">
			<stop  offset="0" style="stop-color:#FFFFFF"/>
			<stop  offset="1" style="stop-color:#FFFFFF;stop-opacity:0"/>
		</radialGradient>
		<path style="fill:url(#SVGID_11_);" d="M1579.77,600.21c-48.91-39.69-68.01-100.07-42.65-134.94
			c25.36-34.87,85.59-30.95,134.51,8.68c48.88,39.69,67.95,100.13,42.64,134.97C1688.87,643.79,1628.66,639.87,1579.77,600.21z"/>
		
			<radialGradient id="SVGID_12_" cx="5542.1484" cy="-2944.626" r="43.0057" gradientTransform="matrix(-0.8392 1.1536 -1.6186 -1.3126 1675.4727 -9590.6709)" gradientUnits="userSpaceOnUse">
			<stop  offset="0" style="stop-color:#FFFFFF"/>
			<stop  offset="1" style="stop-color:#FFFFFF;stop-opacity:0"/>
		</radialGradient>
		<path style="opacity:0.4;fill:url(#SVGID_12_);" d="M1754.58,717.49c-38.42-31.19-53.43-78.67-33.51-106.06
			c19.94-27.4,67.25-24.31,105.69,6.83c38.42,31.2,53.42,78.7,33.51,106.06C1840.32,751.71,1793.02,748.62,1754.58,717.49z"/>
		
			<radialGradient id="SVGID_13_" cx="1353.0402" cy="754.347" r="31.4444" gradientTransform="matrix(0.901 -0.4338 1.2628 2.6229 -818.6362 -637.3188)" gradientUnits="userSpaceOnUse">
			<stop  offset="0" style="stop-color:#FFFFFF"/>
			<stop  offset="1" style="stop-color:#FFFFFF;stop-opacity:0"/>
		</radialGradient>
		<path style="opacity:0.2;fill:url(#SVGID_13_);" d="M1375.33,721.81c-28.35-44.23-61.31-65.51-73.65-47.56
			c-12.28,17.91,0.73,68.35,29.05,112.61c28.38,44.23,61.34,65.54,73.65,47.6C1416.69,816.48,1403.68,766.07,1375.33,721.81z"/>
	</g>
	<radialGradient id="SVGID_14_" cx="1478.3066" cy="1055.2522" r="470.0713" gradientUnits="userSpaceOnUse">
		<stop  offset="0" style="stop-color:#28CBE9"/>
		<stop  offset="1" style="stop-color:#0A4FBB"/>
	</radialGradient>
	<path class="st14" d="M1549.43,1267.66l-50.42-29.1l15.6-9c12.38-7.14,16.63-22.98,9.49-35.34c-7.14-12.37-22.98-16.62-35.34-9.48
		l-41.49,23.93l-38.29-22.1c1.65-6.87,2.62-13.99,2.62-21.36c0-7.37-0.97-14.49-2.62-21.37l38.29-22.11l41.48,23.94
		c4.07,2.36,8.52,3.49,12.9,3.49c8.95,0,17.64-4.65,22.43-12.95c7.14-12.37,2.9-28.19-9.47-35.34l-15.61-9.01l50.43-29.1
		c12.38-7.15,16.61-22.98,9.47-35.34c-7.14-12.38-22.94-16.63-35.34-9.47l-50.42,29.1l0.02-18.01c0-14.3-11.6-25.88-25.88-25.88l0,0
		c-14.29,0-25.88,11.58-25.88,25.86l-0.02,47.89l-38.33,22.13c-10.34-9.82-22.92-17.26-36.96-21.41v-44.18l41.48-23.96
		c12.38-7.14,16.6-22.96,9.46-35.33c-7.14-12.38-22.97-16.63-35.34-9.48l-15.6,9.01v-58.2c0-14.29-11.58-25.86-25.87-25.86
		c-14.3,0-25.88,11.58-25.88,25.86v58.2l-15.61-9.01c-12.37-7.15-28.19-2.9-35.34,9.48c-7.14,12.37-2.89,28.19,9.47,35.33
		l41.49,23.96v44.18c-14.03,4.15-26.63,11.59-36.97,21.42l-38.33-22.14v-47.89c0-14.29-11.59-25.86-25.88-25.86
		c-14.3,0-25.87,11.58-25.87,25.86v18.02l-50.41-29.1c-12.38-7.17-28.2-2.92-35.34,9.47c-7.15,12.37-2.92,28.19,9.47,35.34
		l50.41,29.1l-15.62,9c-12.36,7.14-16.61,22.98-9.47,35.36c4.78,8.29,13.5,12.94,22.44,12.94c4.38,0,8.83-1.11,12.9-3.47
		l41.49-23.94l38.31,22.11c-1.67,6.87-2.63,13.99-2.63,21.37c0,7.37,0.96,14.49,2.63,21.36l-38.31,22.1l-41.47-23.94
		c-12.38-7.17-28.2-2.9-35.34,9.47c-7.17,12.37-2.92,28.21,9.47,35.34l15.61,9.01l-50.42,29.12c-12.38,7.14-16.62,22.96-9.47,35.34
		c4.78,8.31,13.48,12.94,22.43,12.94c4.4,0,8.84-1.11,12.92-3.47l50.39-29.1v18.01c0,14.29,11.59,25.88,25.87,25.88
		c14.29,0,25.89-11.58,25.89-25.88l0.02-47.89l38.33-22.14c10.34,9.83,22.94,17.28,36.96,21.42v44.2l-41.48,23.94
		c-12.38,7.14-16.62,22.96-9.47,35.34c7.14,12.38,22.96,16.63,35.34,9.47l15.61-9.01v58.22c0,14.29,11.59,25.88,25.88,25.88
		c14.29,0,25.87-11.59,25.87-25.88v-58.2l15.59,9.01c4.07,2.36,8.52,3.47,12.92,3.47c8.93,0,17.64-4.63,22.42-12.94
		c7.16-12.37,2.92-28.19-9.44-35.34l-41.49-23.96v-44.2c14.03-4.13,26.63-11.58,36.97-21.41l38.33,22.11v47.9
		c0,14.3,11.57,25.88,25.88,25.88c14.29,0,25.87-11.58,25.87-25.88v-18.02l50.42,29.12c4.07,2.36,8.52,3.47,12.9,3.47
		c8.95,0,17.66-4.65,22.44-12.94C1566.04,1290.62,1561.8,1274.8,1549.43,1267.66z M1320.23,1204.83
		c-21.85,0-39.62-17.77-39.62-39.62c0-21.85,17.77-39.62,39.62-39.62s39.62,17.77,39.62,39.62
		C1359.85,1187.05,1342.07,1204.83,1320.23,1204.83z"/>
</g>
</svg>
