<?xml version="1.0" encoding="utf-8"?>
<!-- Generator: Adobe Illustrator 25.2.0, SVG Export Plug-In . SVG Version: 6.00 Build 0)  -->
<svg version="1.1" xmlns="http://www.w3.org/2000/svg" xmlns:xlink="http://www.w3.org/1999/xlink" x="0px" y="0px"
	 viewBox="0 0 2000 2000" style="enable-background:new 0 0 2000 2000;" xml:space="preserve">
<style type="text/css">
	.st0{fill:url(#SVGID_1_);}
	.st1{fill:url(#SVGID_2_);}
	.st2{fill:url(#SVGID_3_);}
	.st3{opacity:0.4;fill:url(#SVGID_4_);}
	.st4{fill:url(#SVGID_5_);}
	.st5{fill:#ACADB2;}
	.st6{fill:url(#SVGID_6_);}
	.st7{opacity:0.4;fill:url(#SVGID_7_);}
	.st8{fill:url(#SVGID_8_);}
	.st9{fill:url(#SVGID_9_);}
	.st10{fill:url(#SVGID_10_);}
	.st11{opacity:0.4;fill:url(#SVGID_11_);}
	.st12{fill:url(#SVGID_12_);}
	.st13{fill:url(#SVGID_13_);}
	.st14{fill:url(#SVGID_14_);}
	.st15{opacity:0.4;fill:url(#SVGID_15_);}
	.st16{opacity:0.2;fill:url(#SVGID_16_);}
	.st17{fill:url(#SVGID_17_);}
	.st18{fill:url(#SVGID_18_);}
	.st19{opacity:0.4;fill:url(#SVGID_19_);}
	.st20{fill:url(#SVGID_20_);}
	.st21{fill:url(#SVGID_21_);}
	.st22{fill:url(#SVGID_22_);}
	.st23{opacity:0.4;fill:url(#SVGID_23_);}
	.st24{opacity:0.2;fill:url(#SVGID_24_);}
	.st25{fill:url(#SVGID_25_);}
	.st26{fill:url(#SVGID_26_);}
	.st27{fill:url(#SVGID_27_);}
	.st28{opacity:0.4;fill:url(#SVGID_28_);}
	.st29{fill:url(#SVGID_29_);}
	.st30{fill:url(#SVGID_30_);}
	.st31{fill:url(#SVGID_31_);}
	.st32{opacity:0.4;fill:url(#SVGID_32_);}
	.st33{opacity:0.2;fill:url(#SVGID_33_);}
	.st34{fill:url(#SVGID_34_);}
	.st35{fill:url(#SVGID_35_);}
	.st36{fill:url(#SVGID_36_);}
	.st37{fill:url(#SVGID_37_);}
	.st38{fill:url(#SVGID_38_);}
	.st39{fill:url(#SVGID_39_);}
	.st40{fill:url(#SVGID_40_);}
	.st41{fill:url(#SVGID_41_);}
	.st42{fill:url(#SVGID_42_);}
	.st43{fill:url(#SVGID_43_);}
	.st44{opacity:0.4;fill:url(#SVGID_44_);}
	.st45{fill:url(#SVGID_45_);}
	.st46{fill:url(#SVGID_46_);}
	.st47{fill:url(#SVGID_47_);}
	.st48{opacity:0.4;fill:url(#SVGID_48_);}
	.st49{opacity:0.2;fill:url(#SVGID_49_);}
	.st50{fill:url(#SVGID_50_);}
	.st51{fill:url(#SVGID_51_);}
	.st52{fill:url(#SVGID_52_);}
	.st53{fill:url(#SVGID_53_);}
	.st54{fill:url(#SVGID_54_);}
	.st55{fill:url(#SVGID_55_);}
	.st56{fill:url(#SVGID_56_);}
	.st57{fill:url(#SVGID_57_);}
	.st58{fill:url(#SVGID_58_);}
	.st59{fill:url(#SVGID_59_);}
	.st60{fill:url(#SVGID_60_);}
	.st61{fill:url(#SVGID_61_);}
	.st62{fill:url(#SVGID_62_);}
	.st63{opacity:0.4;fill:url(#SVGID_63_);}
	.st64{fill:url(#SVGID_64_);}
	.st65{fill:url(#SVGID_65_);}
	.st66{fill:url(#SVGID_66_);}
	.st67{opacity:0.4;fill:url(#SVGID_67_);}
	.st68{opacity:0.2;fill:url(#SVGID_68_);}
	.st69{fill:url(#SVGID_69_);}
	.st70{fill:url(#SVGID_70_);}
	.st71{fill:url(#SVGID_71_);}
	.st72{fill:url(#SVGID_72_);}
	.st73{opacity:0.4;fill:url(#SVGID_73_);}
	.st74{fill:url(#SVGID_74_);}
	.st75{fill:url(#SVGID_75_);}
	.st76{fill:url(#SVGID_76_);}
	.st77{opacity:0.4;fill:url(#SVGID_77_);}
	.st78{opacity:0.2;fill:url(#SVGID_78_);}
	.st79{fill:url(#SVGID_79_);}
	.st80{fill:url(#SVGID_80_);}
	.st81{fill:url(#SVGID_81_);}
	.st82{opacity:0.4;fill:url(#SVGID_82_);}
	.st83{fill:url(#SVGID_83_);}
	.st84{fill:url(#SVGID_84_);}
	.st85{fill:url(#SVGID_85_);}
	.st86{opacity:0.4;fill:url(#SVGID_86_);}
	.st87{opacity:0.2;fill:url(#SVGID_87_);}
	.st88{fill:url(#SVGID_88_);}
	.st89{fill:url(#SVGID_89_);}
	.st90{fill:url(#SVGID_90_);}
	.st91{opacity:0.4;fill:url(#SVGID_91_);}
	.st92{opacity:0.2;fill:url(#SVGID_92_);}
	.st93{fill:url(#SVGID_101_);}
	.st94{fill:url(#SVGID_102_);}
	.st95{opacity:0.4;fill:url(#SVGID_103_);}
	.st96{fill:url(#SVGID_104_);}
	.st97{fill:url(#SVGID_105_);}
	.st98{fill:url(#SVGID_106_);}
	.st99{opacity:0.4;fill:url(#SVGID_107_);}
	.st100{opacity:0.2;fill:url(#SVGID_108_);}
	.st101{fill:url(#SVGID_109_);}
	.st102{fill:url(#SVGID_110_);}
	.st103{fill:url(#SVGID_111_);}
	.st104{opacity:0.4;fill:url(#SVGID_112_);}
	.st105{opacity:0.2;fill:url(#SVGID_113_);}
	.st106{fill:url(#SVGID_122_);}
	.st107{fill:url(#SVGID_123_);}
	.st108{fill:url(#SVGID_124_);}
	.st109{opacity:0.4;fill:url(#SVGID_125_);}
	.st110{fill:url(#SVGID_126_);}
	.st111{fill:url(#SVGID_127_);}
	.st112{fill:url(#SVGID_128_);}
	.st113{opacity:0.4;fill:url(#SVGID_129_);}
	.st114{opacity:0.2;fill:url(#SVGID_130_);}
	.st115{fill:url(#SVGID_131_);}
	.st116{fill:url(#SVGID_132_);}
	.st117{fill:url(#SVGID_133_);}
	.st118{opacity:0.4;fill:url(#SVGID_134_);}
	.st119{opacity:0.2;fill:url(#SVGID_135_);}
	.st120{fill:url(#SVGID_136_);}
	.st121{fill:url(#SVGID_137_);}
	.st122{fill:url(#SVGID_138_);}
	.st123{opacity:0.4;fill:url(#SVGID_139_);}
	.st124{fill:url(#SVGID_140_);}
	.st125{fill:url(#SVGID_141_);}
	.st126{fill:url(#SVGID_142_);}
	.st127{opacity:0.4;fill:url(#SVGID_143_);}
	.st128{opacity:0.2;fill:url(#SVGID_144_);}
	.st129{fill:url(#SVGID_145_);}
	.st130{fill:url(#SVGID_146_);}
	.st131{fill:url(#SVGID_147_);}
	.st132{opacity:0.4;fill:url(#SVGID_148_);}
	.st133{opacity:0.2;fill:url(#SVGID_149_);}
	.st134{fill:url(#SVGID_150_);}
</style>
<g id="Layer_1">
</g>
<g id="Layer_2">
</g>
<g id="Layer_3">
</g>
<g id="Layer_4">
</g>
<g id="Layer_5">
</g>
<g id="Layer_6">
</g>
<g id="Layer_7">
	<linearGradient id="SVGID_1_" gradientUnits="userSpaceOnUse" x1="676.1968" y1="1933.5115" x2="813.8077" y2="1500.1847">
		<stop  offset="0.1559" style="stop-color:#FFE036"/>
		<stop  offset="1" style="stop-color:#FA761C"/>
	</linearGradient>
	<path class="st0" d="M834.92,1665.91h-10.84h-41.23l85.85-166.87c3.68-7.28,6.74-15.56,8.51-23.88
		c11.03-51.8-22.02-102.71-73.81-113.74c-51.78-11.03-102.69,22.02-113.72,73.81l-57.4,269.58l-1.77,8.28
		c-0.77,3.82-1.19,7.77-1.19,11.8c0,32.09,26.03,58.14,58.12,58.14h63.53l-34.28,142.99c-1.24,5.15,0.65,10.75,5.2,14.06
		c6.04,4.38,14.46,3.03,18.87-2.99l136.53-188.14c6.25-8.63,9.96-19.26,9.96-30.74C887.23,1689.33,863.82,1665.91,834.92,1665.91z"
		/>
	<linearGradient id="SVGID_2_" gradientUnits="userSpaceOnUse" x1="970.1788" y1="1933.5127" x2="1107.7909" y2="1500.182">
		<stop  offset="0.1559" style="stop-color:#FFE036"/>
		<stop  offset="1" style="stop-color:#FA761C"/>
	</linearGradient>
	<path class="st1" d="M1128.9,1665.91h-10.84h-41.23l85.85-166.87c3.69-7.28,6.74-15.56,8.51-23.88
		c11.03-51.8-22.02-102.71-73.79-113.74c-51.8-11.03-102.71,22.02-113.74,73.81l-57.37,269.58l-1.8,8.28
		c-0.79,3.82-1.19,7.77-1.19,11.8c0,32.09,26.03,58.14,58.14,58.14h63.53l-34.28,142.99c-1.24,5.15,0.63,10.75,5.18,14.06
		c6.04,4.38,14.48,3.03,18.87-2.99l136.53-188.14c6.25-8.63,9.98-19.26,9.98-30.74C1181.23,1689.33,1157.79,1665.91,1128.9,1665.91z
		"/>
	<g>
		<g>
			<linearGradient id="SVGID_3_" gradientUnits="userSpaceOnUse" x1="1881.1711" y1="170.6472" x2="969.6818" y2="1189.2085">
				<stop  offset="0" style="stop-color:#FFBA24"/>
				<stop  offset="1" style="stop-color:#FF5500"/>
			</linearGradient>
			<polygon class="st2" points="1814.1,1022.25 1700.49,1029.75 1679.08,1141.58 1569.75,1109.71 1511.41,1207.49 1419.57,1140.19 
				1331.29,1212.1 1268.01,1117.45 1160.48,1154.8 1133.39,1044.22 1019.55,1042.54 1031.91,929.35 925.51,888.86 975.85,786.75 
				889.71,712.3 971.95,633.52 916.46,534.13 1020.66,488.24 1002.53,375.85 1116.11,368.38 1137.54,256.55 1246.86,288.39 
				1305.21,190.64 1397.04,257.91 1485.32,186.03 1548.62,280.68 1656.15,243.3 1683.23,353.91 1797.07,355.55 1784.69,468.75 
				1891.12,509.23 1840.78,611.34 1926.92,685.83 1844.69,764.57 1900.19,864 1795.95,909.85 			"/>
			
				<radialGradient id="SVGID_4_" cx="4369.5156" cy="458.2077" r="729.2027" gradientTransform="matrix(-1 0 0 1 5865.6729 0)" gradientUnits="userSpaceOnUse">
				<stop  offset="0" style="stop-color:#FFF4C3"/>
				<stop  offset="0.1559" style="stop-color:#FFE036"/>
				<stop  offset="1" style="stop-color:#FA761C"/>
			</radialGradient>
			<circle style="fill:url(#SVGID_4_);" cx="1408.31" cy="699.05" r="384.12"/>
			<g>
				
					<radialGradient id="SVGID_5_" cx="4469.9932" cy="-225.418" r="109.4609" gradientTransform="matrix(-0.8392 1.1536 -1.6186 -1.3126 4945.0444 -4919.2192)" gradientUnits="userSpaceOnUse">
					<stop  offset="0" style="stop-color:#FFFFFF"/>
					<stop  offset="1" style="stop-color:#FFFFFF;stop-opacity:0"/>
				</radialGradient>
				<path class="st4" d="M1466.84,659.54c-97.84-79.37-136.04-200.2-85.33-269.95c50.76-69.75,171.17-61.9,269.06,17.4
					c97.82,79.37,135.97,200.24,85.28,269.95C1685.09,746.68,1564.64,738.87,1466.84,659.54z"/>
				
					<radialGradient id="SVGID_6_" cx="1209.926" cy="2172.0159" r="105.6233" gradientTransform="matrix(-1.1717 -1.1007 0.222 -0.7283 2128.0569 3813.8796)" gradientUnits="userSpaceOnUse">
					<stop  offset="0" style="stop-color:#FFFFFF"/>
					<stop  offset="1" style="stop-color:#FFFFFF;stop-opacity:0"/>
				</radialGradient>
				<path style="opacity:0.4;fill:url(#SVGID_6_);" d="M1068.8,783.96c12.97-42.47,78.81-24.9,147.2,39.34
					c68.35,64.2,113.25,150.61,100.35,193.19c-12.92,42.44-78.83,24.86-147.21-39.34C1100.82,912.92,1055.88,826.4,1068.8,783.96z"
					/>
			</g>
		</g>
		<g>
			
				<radialGradient id="SVGID_7_" cx="1102.7808" cy="651.549" r="1254.4392" gradientTransform="matrix(-1 0 0 -0.7305 2205.5615 1127.4977)" gradientUnits="userSpaceOnUse">
				<stop  offset="0" style="stop-color:#FFFFFF"/>
				<stop  offset="0.198" style="stop-color:#D5F3FF"/>
				<stop  offset="1" style="stop-color:#85BCF1"/>
			</radialGradient>
			<path style="fill:url(#SVGID_7_);" d="M1376.43,854.55c-17.12-250.81-225.89-448.99-481.03-448.99
				c-255.17,0-463.9,198.18-481.03,448.99c-190.06,9.41-341.28,166.48-341.28,358.84c0,198.46,160.88,359.33,359.31,359.33h926.01
				c198.43,0,359.31-160.87,359.31-359.33C1717.72,1021.03,1566.47,863.96,1376.43,854.55z"/>
			<radialGradient id="SVGID_8_" cx="1280.5343" cy="756.7435" r="1066.4124" gradientUnits="userSpaceOnUse">
				<stop  offset="0" style="stop-color:#FFE036"/>
				<stop  offset="5.172825e-03" style="stop-color:#FFDF36;stop-opacity:0.9933"/>
				<stop  offset="0.1623" style="stop-color:#FDB92C;stop-opacity:0.789"/>
				<stop  offset="0.319" style="stop-color:#FC9C25;stop-opacity:0.5851"/>
				<stop  offset="0.4735" style="stop-color:#FB8720;stop-opacity:0.3841"/>
				<stop  offset="0.6247" style="stop-color:#FA7A1D;stop-opacity:0.1875"/>
				<stop  offset="0.7688" style="stop-color:#FA761C;stop-opacity:0"/>
			</radialGradient>
			<path class="st8" d="M1376.43,854.55c-17.12-250.81-225.89-448.99-481.03-448.99c-255.17,0-463.9,198.18-481.03,448.99
				c-190.06,9.41-341.28,166.48-341.28,358.84c0,198.46,160.88,359.33,359.31,359.33h926.01c198.43,0,359.31-160.87,359.31-359.33
				C1717.72,1021.03,1566.47,863.96,1376.43,854.55z"/>
			
				<radialGradient id="SVGID_9_" cx="4811.4463" cy="-71.1489" r="151.3423" gradientTransform="matrix(-0.8392 1.1536 -1.6186 -1.3126 4945.0444 -4919.2192)" gradientUnits="userSpaceOnUse">
				<stop  offset="0" style="stop-color:#FFFFFF"/>
				<stop  offset="1" style="stop-color:#FFFFFF;stop-opacity:0"/>
			</radialGradient>
			<path class="st9" d="M895.43,899.25c-135.25-109.74-188.1-276.82-117.97-373.21c70.16-96.46,236.7-85.61,372,24.03
				c135.24,109.74,187.98,276.89,117.92,373.24C1197.19,1019.77,1030.67,1008.93,895.43,899.25z"/>
			
				<radialGradient id="SVGID_10_" cx="4806.9043" cy="-350.7153" r="118.9391" gradientTransform="matrix(-0.8392 1.1536 -1.6186 -1.3126 4945.0444 -4919.2192)" gradientUnits="userSpaceOnUse">
				<stop  offset="0" style="stop-color:#FFFFFF"/>
				<stop  offset="1" style="stop-color:#FFFFFF;stop-opacity:0"/>
			</radialGradient>
			<path style="opacity:0.4;fill:url(#SVGID_10_);" d="M1378.96,1223.6c-106.29-86.27-147.81-217.57-92.71-293.35
				c55.13-75.78,186.01-67.23,292.36,18.94c106.28,86.21,147.74,217.57,92.67,293.28C1616.1,1318.28,1485.24,1309.77,1378.96,1223.6
				z"/>
			
				<radialGradient id="SVGID_11_" cx="268.3405" cy="1325.561" r="86.9735" gradientTransform="matrix(0.901 -0.4338 1.2628 2.6229 -1647.3108 -2034.8749)" gradientUnits="userSpaceOnUse">
				<stop  offset="0" style="stop-color:#FFFFFF"/>
				<stop  offset="1" style="stop-color:#FFFFFF;stop-opacity:0"/>
			</radialGradient>
			<path style="opacity:0.2;fill:url(#SVGID_11_);" d="M329.99,1235.63c-78.45-122.37-169.55-181.27-203.68-131.64
				c-33.98,49.59,1.95,189.08,80.35,311.48c78.48,122.37,169.66,181.3,203.69,131.65C444.35,1497.39,408.44,1358.04,329.99,1235.63z
				"/>
		</g>
	</g>
</g>
<g id="Layer_8">
</g>
<g id="Layer_9">
</g>
<g id="Layer_10">
</g>
<g id="Layer_9_copy">
</g>
<g id="Layer_10_copy">
</g>
</svg>
